<svg xmlns="http://www.w3.org/2000/svg" viewBox="0 0 500 500">
  <path d="M185.365,84.184c1.069-1.055,1.144-2.064,1.402-2.965c3.137-10.96,7.89-21.169,14.113-30.714
    c1.987-3.048,4.285-5.801,7.018-8.195c0.957-0.839,1.95-1.652,3.164-2.073c4.181-1.447,7.309-0.25,8.478,3.947
    c0.632,2.27,1.007,4.598,1.004,6.932c-0.008,6.836-0.606,13.561-2.427,20.246c-3.496,12.837-8.78,25.123-15.274,36.72
    c-3.632,6.486-8.282,12.311-12.451,18.446c-2.304,3.39-6.25,14.491-10.262,13.622c-6.277-1.36-10.339-16.299-12.395-21.417
    c-6.371-15.864-11.733-32.032-15.146-48.812c-1.447-7.114-2.043-14.291-1.534-21.532c0.331-4.704,1.864-8.936,5.367-12.311
    c2.395-2.307,4.931-2.58,7.597-0.618c1.506,1.108,2.7,2.531,3.822,4.014c2.725,3.605,4.762,7.589,6.504,11.741
    c4.27,10.172,8.055,20.507,10.563,31.274C185.017,82.956,185.157,83.414,185.365,84.184z"/>
</svg>
