<?xml version="1.0" encoding="utf-8"?>
<!-- Generator: Adobe Illustrator 27.5.0, SVG Export Plug-In . SVG Version: 6.00 Build 0)  -->
<svg version="1.1" xmlns="http://www.w3.org/2000/svg" xmlns:xlink="http://www.w3.org/1999/xlink" x="0px" y="0px"
	 viewBox="0 0 500 500" style="enable-background:new 0 0 500 500;" xml:space="preserve">
<g id="BACKGROUND">
	<rect style="fill:#FFFFFF;" width="500" height="500"/>
</g>
<g id="OBJECTS">
	<g>
		<path d="M350.924,274.322c0.808-0.605,0.84-1.431,1.091-2.151c2.19-6.278,4.96-12.297,8.161-18.116
			c1.607-2.921,3.568-5.586,6.07-7.828c2.442-2.188,5.225-3.364,8.556-3.007c0.387,0.042,0.778,0.071,1.167,0.076
			c8.322,0.1,13.772,5.148,14.582,13.564c0.604,6.282-0.308,12.406-1.565,18.572c-3.546,17.395-8.587,34.433-12.146,51.82
			c-1.594,7.79-1.9,15.678-1.839,23.589c0.033,4.292,0.263,8.582,0.428,12.872c0.03,0.774-0.11,1.845,0.324,2.258
			c1.384,1.316,0.109,2.27-0.203,3.347c-0.312,1.078-1.105,1.321-2.064,0.926c-0.987-0.406-2.038-0.773-2.877-1.403
			c-9.044-6.794-18.684-12.763-27.359-20.079c-10.234-8.633-18.343-18.759-23.823-31.059c-4.979-11.174-9.272-22.545-11.729-34.548
			c-1.345-6.57-1.592-13.164,0.279-19.706c0.947-3.311,2.418-6.369,4.422-9.18c2.809-3.94,6.666-6.197,11.339-7.165
			c0.568-0.118,1.205-0.285,1.734-0.143c2.847,0.761,5.813,0.521,8.666,1.081c3.196,0.627,5.638,2.58,7.717,4.996
			c3.106,3.609,5.16,7.799,6.562,12.309C349.335,268.29,350.083,271.284,350.924,274.322z M345.467,346.927
			c0.309,1.123,1.329,1.439,2.202,1.92c-0.624-0.767-0.998-1.824-2.22-1.9c0.025-1.035-0.886-1.443-1.437-2.065
			c-9.567-10.815-17.562-22.645-22.841-36.141c-2.482-6.344-4.744-12.773-7.298-19.095c-4.167-10.315-4.052-20.714-0.133-31.105
			c0.232-0.615,0.814-1.247,0.318-2.272c-1.779,2.517-2.901,5.086-3.712,7.8c-1.836,6.145-1.564,12.346-0.285,18.521
			c2.846,13.736,7.887,26.686,14.14,39.207c4.793,9.596,11.67,17.458,19.774,24.34C344.406,346.502,344.794,346.998,345.467,346.927
			z M367.532,360.358c-0.265-3.394-0.54-6.302-0.711-9.215c-0.484-8.289-0.627-16.583,0.631-24.819
			c2.196-14.376,5.161-28.577,9.739-42.417c2.583-7.809,3.982-15.873,4.547-24.082c0.191-2.782-0.338-5.44-1.209-8.045
			c-0.638-1.909-0.898-2.028-2.732-1.625c-2.273,0.5-4.115,1.763-5.71,3.382c-3.442,3.496-6.472,7.315-8.511,11.811
			c-2.659,5.865-4.95,11.881-6.721,18.074c-0.668,2.335-0.976,4.771-1.469,7.157c-0.55,2.661-1.608,3.135-3.762,1.573
			c-0.588-0.427-1.081-0.724-1.814-0.696c-1.664,0.063-2.356-1.034-2.879-2.415c-1.419-3.744-2.47-7.598-3.61-11.429
			c-2.395-8.045-6.482-15.181-11.652-21.777c-1.965-2.507-4.141-2.885-6.933-2.015c-2.282,0.711-3.905,2.122-5.001,4.204
			c-1.337,2.54-2.081,5.283-2.346,8.102c-1.317,14.033,0.089,27.594,6.743,40.342c9.422,18.052,20.921,34.507,36.191,48.144
			C362.497,356.554,364.723,358.423,367.532,360.358z M377.465,247.267c-2.147-0.84-3.672-0.453-5.176,0.444
			c-2.037,1.215-3.768,2.779-5.299,4.557c-4.625,5.373-8.195,11.404-10.628,18.045c-1.323,3.611-1.957,7.425-1.906,11.336
			c0.462-0.653,0.704-1.371,0.97-2.081c1.639-4.379,3.071-8.852,4.972-13.115C363.978,258.428,368.739,251.324,377.465,247.267z
			 M346.229,267.879c-1.715-8.909-7.19-16.265-13.228-17.163C339.31,255.518,343.738,260.979,346.229,267.879z M386.605,267.272
			c-2.398,5.695-2.607,11.809-3.447,17.801C385.956,279.455,386.475,273.4,386.605,267.272z M372.557,341.098
			c0.399-8.911,2.567-17.54,4.26-26.244C373.773,323.342,372.042,332.041,372.557,341.098z M384.427,257.749
			c0.512-0.644,0.248-1.267,0.023-1.929C384.057,256.474,384.127,257.094,384.427,257.749z"/>
	</g>
	<g>
		<path d="M76.38,55.746c1.518-5.663,3.481-10.946,5.973-16.043c2.128-4.353,5.026-8.102,8.445-11.49
			c4.759-4.715,10.224-5.688,16.379-3.151c4.015,1.655,7.101,4.377,9.388,8.046c3.505,5.624,4.998,11.82,5.085,18.37
			c0.148,11.141-2.232,21.884-5.451,32.458c-3.213,10.556-7.51,20.665-12.243,30.646c-4.872,10.273-10.689,19.906-17.237,29.147
			c-1.232,1.74-2.142,1.784-3.244-0.024c-0.62-1.018-1.401-1.856-2.192-2.717c-1.253-1.363-2.55-2.704-3.656-4.182
			c-10.35-13.83-20.219-27.996-28.269-43.308c-6.279-11.943-11.102-24.495-14.063-37.702c-0.922-4.113-1.335-8.282-0.509-12.479
			c1.276-6.49,5.086-9.809,11.702-10.088c6.286-0.265,11.615,2.147,16.266,6.177c4.61,3.993,8.194,8.862,11.564,13.903
			C74.844,54.094,75.116,55.097,76.38,55.746z M83.882,138.755c1.145-0.372,1.54-1.331,2.117-2.084
			c3.4-4.436,5.992-9.327,8.243-14.432c7.878-17.866,14.953-35.97,18.442-55.324c1.895-10.513,1.302-20.708-1.818-30.889
			c-1.419-4.631-6.071-5.476-9.344-3.589c-2.308,1.33-4.382,2.902-6.079,4.962c-3.379,4.103-5.982,8.629-7.723,13.672
			c-1.922,5.567-2.829,11.321-3.633,17.124c-0.346,2.499-0.146,4.739,0.753,7.096c2.246,5.888,3.199,12.04,3.147,18.34
			c-0.018,2.149-0.08,4.318-1.077,6.287c-1.135,2.239-3.085,2.639-5.063,1.104c-2.079-1.613-3.268-3.797-4.131-6.241
			c-3.268-9.256-4.462-18.752-3.282-28.502c0.191-1.576-0.065-2.812-0.987-4.076c-5.095-6.981-11.188-12.992-17.849-18.448
			c-0.967-0.792-2.11-1.417-3.257-1.93c-2.909-1.301-4.795-0.616-6.349,2.139c-1.257,2.228-1.341,4.659-1.197,7.107
			c0.363,6.182,1.778,12.146,4.006,17.904c7.392,19.109,15.336,37.953,26.517,55.249c1.532,2.369,2.751,4.938,4.173,7.38
			C80.901,134.026,82.134,136.561,83.882,138.755z M106.286,28.851c-2.09-1.923-4.115-1.928-6.243-1.227
			c-2.9,0.956-5.008,2.943-6.769,5.354c-6.827,9.344-10.367,20.001-12.471,31.231c-0.169,0.903,0,1.679,1.008,2.324
			c0.218-1.37,0.419-2.611,0.613-3.853c1.433-9.166,4.049-17.862,9.922-25.294C95.862,32.937,99.82,29.224,106.286,28.851z
			 M113.04,84.585c1.513-3.042,2.25-6.365,3.093-9.653c1.969-7.679,3.223-15.468,3.108-23.41c-0.086-5.922-1.369-11.57-4.78-16.577
			c1.434,3.151,2.596,6.391,3.162,9.814c1.245,7.522,0.458,14.961-0.93,22.376C115.603,72.956,114.509,78.777,113.04,84.585z
			 M89.092,34.249c-1.07,0.576-1.612,1.514-2.186,2.404c-2.118,3.286-3.668,6.857-5.148,10.46
			c-1.408,3.429-2.409,6.988-3.327,10.569c-0.231,0.902-0.797,1.988,0.743,3.052C80.788,51.071,84.344,42.431,89.092,34.249z
			 M60.13,43.902c-2.198-2.844-5.087-4.898-8.356-6.386c-4.198-1.911-8.765,1.323-8.647,6.104c0.222-0.248,0.439-0.44,0.595-0.672
			c3.069-4.568,6.355-5.359,11.098-2.68C56.684,41.322,58.263,42.759,60.13,43.902z M79.701,91.814
			c-0.027-4.846,0.155-9.676,0.74-14.484c0.148-1.212-0.148-2.196-1.336-3.51C78.766,80.196,77.413,86.05,79.701,91.814z
			 M82.991,83.701c-1.498,2.917-0.826,10.522,1.271,13.228C85.529,92.233,84.159,88.026,82.991,83.701z M41.874,62.61
			c-1.214-6.562-2-13.096-1.837-19.726C38.8,49.654,39.968,56.202,41.874,62.61z M76.943,68.531
			c-0.444,1.211-0.403,2.018-0.112,2.97C77.174,70.609,77.252,69.836,76.943,68.531z M47.032,79.264
			c-0.405,0.889,0.334,1.265,0.54,2.109C47.889,80.347,47.282,79.925,47.032,79.264z"/>
	</g>
	<g>
		<path d="M134.371,364.92c0.676-1.236,1.151-2.122,1.642-3c2.387-4.267,5.434-7.963,9.409-10.852
			c2.352-1.71,4.926-2.867,7.836-3.252c5.488-0.727,9.813,2.346,10.771,7.781c0.707,4.012,0.25,7.966-0.964,11.824
			c-2.176,6.92-5.926,12.772-11.469,17.561c-6.646,5.744-13.794,10.784-21.025,15.728c-1.376,0.941-2.796,1.812-4.118,2.838
			c-1.588,1.232-3.201,0.777-4.085-1.035c-2.741-5.62-5.436-11.263-8.248-16.848c-3.819-7.584-6.241-15.569-7.166-24.006
			c-0.365-3.333-0.291-6.669,0.206-9.983c0.331-2.203,1.111-4.264,2.336-6.135c2.257-3.449,5.986-4.844,9.961-3.742
			c1.936,0.537,3.602,1.542,5.05,2.925c1.963,1.873,3.459,4.089,4.733,6.463c1.927,3.588,3.227,7.421,4.374,11.311
			C133.816,363.175,134.036,363.846,134.371,364.92z M111.692,357.261c0.013,1.889,0.255,3.663,0.574,5.419
			c1.489,8.184,4.248,15.97,7.473,23.607c1.554,3.68,3.653,7.09,5.312,10.718c0.555,1.214,0.609,1.228,1.783,0.436
			c7.353-4.965,14.622-10.029,21.375-15.824c4.905-4.209,8.268-9.314,10.222-15.407c1.011-3.154,1.48-6.379,0.923-9.685
			c-0.472-2.799-2.168-4.148-4.989-3.99c-1.759,0.099-3.368,0.681-4.877,1.581c-3.402,2.031-5.969,4.895-8.116,8.163
			c-1.773,2.698-3.139,5.604-4.24,8.638c-0.304,0.838-0.596,1.691-1.122,2.424c-1.323,1.845-3.653,1.626-4.57-0.438
			c-0.215-0.484-0.327-1.019-0.451-1.538c-0.981-4.112-2.036-8.202-3.474-12.184c-1.157-3.204-2.531-6.297-4.578-9.049
			c-0.894-1.202-1.87-2.336-3.203-3.065c-2.867-1.567-5.862-1.271-7.065,2.898C111.989,352.32,111.386,354.812,111.692,357.261z"/>
	</g>
	<g>
		<path d="M46.213,177.327c0.676-0.342,0.63-0.936,0.75-1.451c0.637-2.718,1.252-5.468,2.601-7.924
			c1.754-3.194,3.999-5.949,7.907-6.583c1.92-0.312,3.903-0.389,5.79-0.002c4.642,0.953,5.82,2.847,6.107,7.689
			c0.308,5.182-0.757,10.201-2.84,14.926c-2.027,4.6-4.166,9.159-6.618,13.557c-0.564,1.011-1.226,1.979-1.932,2.899
			c-2.121,2.766-4.248,5.521-6.102,8.484c-1.482,2.37-3.175,4.59-5.533,6.203c-0.451,0.308-0.87,0.668-1.427,0.745
			c-2.782,0.383-3.18-0.228-3.072-2.475c0.249-5.173-0.979-10.16-3.062-14.879c-1.436-3.253-3.213-6.354-4.747-9.566
			c-2.711-5.677-5.08-11.484-5.965-17.771c-0.336-2.385-0.434-4.811,0.277-7.147c0.983-3.23,2.564-4.299,5.755-4.228
			c3.266,0.072,5.59,1.584,7.179,4.343c1.243,2.159,2.09,4.493,2.883,6.842C44.874,173.088,45.53,175.205,46.213,177.327z
			 M59.541,168.249c-1.688,1.372-0.68,3.463-1.369,5.128C59.334,172.145,59.334,172.145,59.541,168.249z M62.927,176.023
			c0.84-1.78,0.981-3.126,1.099-4.794C62.632,172.619,62.582,174.006,62.927,176.023z M47.202,190.003
			c0.19-0.555,0.489-1.098-0.013-1.626c-0.052-0.054-0.348,0.004-0.403,0.091C46.396,189.093,46.613,189.588,47.202,190.003z
			 M48.845,206.865c-0.006-0.312-0.206-0.37-0.453-0.32c-0.242,0.05-0.398,0.208-0.4,0.47c-0.002,0.232,0.063,0.494,0.322,0.491
			C48.687,207.501,48.79,207.182,48.845,206.865z"/>
	</g>
	<path d="M304.309,167.387c1.058-0.713,1.147-1.762,1.494-2.632c4.136-10.367,11.38-18.306,19.783-25.323
		c2.026-1.692,4.357-2.951,6.798-3.975c4.178-1.753,8.192-1.364,12.031,0.973c4.01,2.441,7.215,5.737,9.322,9.894
		c4.794,9.456,6.953,19.458,5.113,30.037c-1.404,8.073-5.816,14.651-11.327,20.432c-7.773,8.153-16.802,14.83-26.065,21.186
		c-1.045,0.717-2.044,1.504-3.106,2.196c-8.727,5.692-13.641,13.965-16.17,23.855c-0.554,2.165-1.658,3.056-3.422,2.713
		c-1.659-0.323-2.415-1.664-2.101-3.882c0.62-4.369,0.576-8.764,0.238-13.132c-0.344-4.444-2.075-8.445-4.399-12.268
		c-6.138-10.093-12.945-19.726-19.778-29.347c-7.362-10.367-12.054-21.8-13.489-34.496c-0.453-4.007-0.452-7.984,0.791-11.878
		c1.546-4.84,4.686-7.96,9.692-9.195c6.97-1.72,13.128-0.28,18.487,4.513c4.064,3.636,7.053,8.05,9.36,12.956
		c2.245,4.774,3.916,9.77,5.717,14.716C303.595,165.602,303.948,166.46,304.309,167.387z M302.046,229.244
		c0.409-0.537,0.677-0.82,0.865-1.148c2.928-5.105,7.11-8.989,11.9-12.294c2.969-2.048,5.945-4.089,8.86-6.213
		c6.942-5.057,13.77-10.283,19.677-16.541c5.15-5.456,9.302-11.592,10.24-19.301c1.083-8.902-0.943-17.248-5.01-25.136
		c-1.263-2.45-3.155-4.431-5.303-6.172c-3.201-2.596-6.537-3.22-10.267-1.098c-2.301,1.309-4.514,2.715-6.419,4.556
		c-1.752,1.694-3.477,3.419-5.162,5.179c-6.92,7.229-11.731,15.516-12.777,25.674c-0.03,0.29-0.099,0.576-0.167,0.86
		c-0.341,1.415-1.008,2.567-2.58,2.83c-1.562,0.261-2.636-0.545-3.364-1.816c-0.53-0.926-0.989-1.906-1.366-2.906
		c-0.824-2.188-1.578-4.403-2.356-6.608c-2.042-5.789-3.965-11.625-6.594-17.189c-1.98-4.191-4.569-7.941-8.108-10.977
		c-4.136-3.548-8.806-4.304-13.952-2.659c-1.993,0.637-3.344,1.902-4.228,3.761c-1.075,2.262-1.357,4.666-1.333,7.123
		c0.048,4.912,0.974,9.696,2.311,14.395c2.403,8.444,6.541,16.02,11.641,23.127c6.422,8.949,12.874,17.877,18.287,27.507
		c2.228,3.964,3.886,8.059,4.528,12.566C301.476,227.512,301.384,228.326,302.046,229.244z"/>
	<g>
		<path d="M185.365,84.184c1.069-1.055,1.144-2.064,1.402-2.965c3.137-10.96,7.89-21.169,14.113-30.714
			c1.987-3.048,4.285-5.801,7.018-8.195c0.957-0.839,1.95-1.652,3.164-2.073c4.181-1.447,7.309-0.25,8.478,3.947
			c0.632,2.27,1.007,4.598,1.004,6.932c-0.008,6.836-0.606,13.561-2.427,20.246c-3.496,12.837-8.78,25.123-15.274,36.72
			c-3.632,6.486-8.282,12.311-12.451,18.446c-2.304,3.39-6.25,14.491-10.262,13.622c-6.277-1.36-10.339-16.299-12.395-21.417
			c-6.371-15.864-11.733-32.032-15.146-48.812c-1.447-7.114-2.043-14.291-1.534-21.532c0.331-4.704,1.864-8.936,5.367-12.311
			c2.395-2.307,4.931-2.58,7.597-0.618c1.506,1.108,2.7,2.531,3.822,4.014c2.725,3.605,4.762,7.589,6.504,11.741
			c4.27,10.172,8.055,20.507,10.563,31.274C185.017,82.956,185.157,83.414,185.365,84.184z M216.436,58.611
			c1.272-2.586,1.441-5.34,1.14-8.135c-0.053-0.494,0.005-1.26-0.818-1.433c-0.197,3.196,0.27,6.405-0.332,9.576
			c-0.042,0.653-0.085,1.305-0.127,1.958c0.046,0,0.092-0.001,0.137-0.001C216.436,59.921,216.436,59.266,216.436,58.611z
			 M179.536,132.156c1.613-2.486,3.03-4.926,4.69-7.187c10.05-13.692,17.805-28.624,24.156-44.329
			c3.019-7.465,4.954-15.201,5.757-23.202c0.301-2.999,0.529-6.049-0.133-9.034c-0.421-1.898-1.065-2.082-2.596-0.887
			c-2.575,2.01-4.557,4.572-6.213,7.335c-5.516,9.203-10.936,18.458-14.438,28.686c-1.009,2.948-2.267,5.812-3.444,8.701
			c-0.416,1.021-0.981,1.96-2.3,1.907c-1.46-0.06-1.557-1.219-1.788-2.272c-0.563-2.571-1.146-5.138-1.708-7.71
			c-2.483-11.359-5.289-22.605-11.081-32.851c-1.104-1.954-2.152-3.935-3.514-5.73c-1.087-1.434-2.429-2.532-4.119-3.166
			c-2.06-0.773-3.376-0.286-4.374,1.632c-0.546,1.048-0.874,2.18-0.908,3.365c-0.051,1.754-0.127,3.512-0.059,5.264
			c0.445,11.554,2.231,22.905,5.567,33.975c4.531,15.038,10.119,29.707,15.79,44.343
			C178.956,131.342,179.215,131.642,179.536,132.156z M173.654,125.277c-3.078-9.295-7.39-18.061-9.998-27.454
			c-2.597-9.355-5.732-18.55-8.271-27.918C158.91,89.232,165.571,107.531,173.654,125.277z M156.67,41.812
			c1.762-1.963,3.848-2.29,6.292-2.207C159.363,36.472,157.762,37.029,156.67,41.812z"/>
	</g>
	<g>
		<path d="M125.513,168.353c0.602-1.007,1.084-1.801,1.554-2.602c2.931-4.988,6.224-9.673,10.891-13.239
			c3.408-2.605,7.124-4.318,11.49-4.576c2.215-0.131,3.913,0.61,5.59,1.974c4.132,3.36,5.97,7.828,6.594,12.932
			c0.598,4.902,0.098,9.738-1.112,14.497c-1.65,6.493-4.433,12.467-8.383,17.899c-13.292,18.277-30.502,31.254-51.884,38.72
			c-5.698,1.99-11.387,4.086-17.212,5.55c-2.967,0.746-6.326,0.816-9.53,0.508c-0.608-0.059-1.139-0.35-1.294-1.001
			c-0.194-0.817,0.304-1.279,0.964-1.591c1.959-0.924,4.078-1.348,6.175-1.74c4.152-0.776,7.434-3.02,9.954-6.188
			c7.509-9.442,11.16-20.161,10.411-32.342c-0.467-7.588-1.392-15.147-1.409-22.765c-0.011-4.88,0.077-9.746,1.01-14.557
			c0.616-3.178,1.616-6.227,3.143-9.086c1.165-2.182,2.682-4.056,4.869-5.324c3.603-2.089,7.37-1.852,10.632,0.732
			c2.947,2.335,4.631,5.461,5.613,9.025c0.915,3.319,1.079,6.729,1.285,10.137C124.917,166.236,124.722,167.228,125.513,168.353z
			 M93.068,231.853c0.809,0.554,1.306,0.053,1.799-0.106c9.352-3.01,17.958-7.436,25.83-13.35
			c10.273-7.718,18.351-17.414,25.531-27.932c5.16-7.558,7.854-16.042,9.181-25.032c0.502-3.402-1.032-5.874-3.385-7.94
			c-1.651-1.449-3.675-1.696-5.77-0.911c-1.945,0.729-3.607,1.907-5.173,3.243c-3.746,3.193-6.839,6.917-9.295,11.19
			c-1.405,2.443-2.928,4.779-5.338,6.46c-1.939,1.353-2.852,1.176-3.434-1.172c-0.375-1.512-0.558-3.052-0.549-4.631
			c0.024-4.401-0.418-8.765-1.476-13.043c-0.753-3.044-1.73-6.013-3.957-8.36c-1.618-1.705-3.274-1.862-5.23-0.613
			c-1.195,0.763-1.983,1.857-2.611,3.086c-0.895,1.751-1.406,3.628-1.789,5.546c-0.961,4.808-1.139,9.674-0.989,14.55
			c0.234,7.597,0.636,15.194,0.091,22.791c-0.689,9.605-2.47,18.93-7.148,27.508C97.631,226.297,95.618,229.246,93.068,231.853z
			 M153.703,183.214c-0.16-0.38-0.307-0.435-0.416-0.237c-1.642,2.973-3.029,6.091-5.04,8.853c-2.003,2.751-3.956,5.542-6.043,8.228
			c-2.086,2.686-4.292,5.281-6.481,7.885c-2.105,2.504-4.572,4.679-6.688,7.161C140.267,206.769,148.895,196.416,153.703,183.214z
			 M141.291,156.16c4.571-2.798,9.027-3.747,13.525,0.309c-0.185-4.618-4.182-7.092-7.813-5.169
			C144.766,152.484,142.842,154.086,141.291,156.16z M103.391,200.782c1.413-9.763,0.994-19.539,0.265-29.318
			C103.04,174.41,102.87,197.44,103.391,200.782z M101.302,166.83c0.518-2.162,1.025-4.327,1.556-6.485
			c0.511-2.074,1.132-4.112,1.941-6.093c0.801-1.961,2.07-3.695,2.773-5.68C102.514,153.598,101.495,160.083,101.302,166.83z
			 M159.051,167.753c0.469-4.883,0.386-5.466-0.94-7.184C157.903,162.929,158.844,165.094,159.051,167.753z M132.91,162.006
			c-0.333,0.27-1.198,0.366-0.803,1.192C132.401,162.762,132.656,162.384,132.91,162.006z M130.748,164.874
			c-0.835,0.777-1.287,1.328-1.261,2.374C130.232,166.678,130.575,166.1,130.748,164.874z"/>
	</g>
	<g>
		<path d="M200.233,231.012c-1.395-2.968-3.232-5.369-4.713-7.974c-5.593-9.842-10.997-19.785-13.062-31.101
			c-0.79-4.326-1.057-8.687-0.47-13.099c0.689-5.169,3.5-9.213,7.26-12.312c4.083-3.366,8.968-2.815,13.51-0.51
			c4.198,2.131,7.417,5.321,9.358,9.706c0.382,0.862,0.536,1.871,1.419,2.588c1.87-1.981,3.699-3.99,5.607-5.921
			c2.639-2.671,5.674-4.739,9.291-5.895c5.957-1.902,10.812-0.151,14.044,5.205c2.964,4.912,3.588,10.288,2.575,15.817
			c-3.157,17.228-12.497,30.433-26.719,40.329c-3.426,2.384-7.085,4.431-10.588,6.602c-0.141,0.807,0.445,1.109,0.837,1.474
			c4.348,4.058,8.654,8.158,13.793,11.301c2.735,1.677,7.935,5.782,8.501,8.825c-0.77,0.292-1.385,0.129-2.158-0.141
			c-1.943-0.679-3.78-1.579-5.486-2.722c-6.661-4.461-13.112-9.189-18.219-15.462c-0.996-1.223-1.774-1.062-2.969-0.525
			c-6.05,2.721-12.319,4.871-18.617,6.931c-2.41,0.788-4.864,1.416-7.409,1.616c-1.087,0.085-2.193,0.306-2.563-1.178
			c-0.234-0.936-1.224-0.839-1.84-1.257c-0.448-0.305-0.692-0.695-0.571-1.222c0.153-0.661,0.647-0.943,1.293-0.936
			c6.477,0.067,12.403-1.96,18.079-4.84C193.701,234.643,196.906,232.815,200.233,231.012z M236.611,203.529
			c-0.705,0.061-0.874,0.694-1.19,1.148c-5.682,8.141-12.278,15.368-20.585,20.939c-2.293,1.538-4.418,3.326-6.62,4.999
			c2.725-1.066,5.175-2.566,7.63-4.059c8.27-5.03,14.509-12.031,19.535-20.193c0.539-0.876,1.394-1.679,1.171-2.887
			c1.457-0.981,1.698-2.595,2.172-4.086C237.814,200.667,236.729,201.856,236.611,203.529z M216.405,196.543
			c-0.156,3.782-0.645,8.725-1.599,13.613c-0.261,1.337-0.769,2.621-1.668,3.7c-1.791,2.15-4.43,2.204-6.324,0.132
			c-1.106-1.209-1.621-2.697-1.725-4.265c-0.585-8.886,0.029-17.564,4.84-25.423c0.661-1.08,0.83-2.064,0.336-3.285
			c-1.711-4.231-4.125-8.01-7.563-10.983c-5.068-4.382-11.253-2.673-13.54,3.533c-2.462,6.681-2.906,13.462-1.324,20.415
			c1.826,8.023,4.951,15.593,7.893,23.231c1.484,3.854,3.624,7.319,6.057,10.642c0.907,1.239,1.592,1.559,3.069,0.801
			c14.396-7.389,24.441-18.784,30.987-33.426c2.692-6.022,2.473-12.147,0.35-18.256c-1.466-4.217-3.47-5.152-7.651-3.614
			c-5.531,2.035-9.582,5.851-12.687,10.781c-0.573,0.91-0.61,1.788-0.422,2.785C215.962,189.705,216.277,192.515,216.405,196.543z
			 M212.37,191.591c-2.126,3.914-3.936,11.011-3.906,14.67c0.01,1.226,0.129,2.341,1.413,2.925
			C212.361,205.687,213.473,198.211,212.37,191.591z M234.187,170.395c5.448,3.857,5.331,9.865,6.323,15.468
			c1.063-3.502,1.597-7.023,0.759-10.607C240.394,171.517,238.124,169.959,234.187,170.395z"/>
	</g>
	<path d="M420.693,403.421c0.711-1.519,1.312-2.791,1.903-4.068c3.715-8.019,8.199-15.522,14.689-21.652
		c4.998-4.721,10.501-8.612,17.318-10.29c3.181-0.783,6.394-0.806,9.526,0.012c5.647,1.475,9.55,6.55,10.121,12.98
		c0.497,5.598-0.146,11.11-1.403,16.572c-2.025,8.803-5.331,17.094-9.838,24.913c-9.033,15.673-19.84,30.074-31.479,43.876
		c-0.485,0.575-1.025,1.11-1.585,1.615c-1.23,1.109-2.635,1.461-4.18,0.738c-1.022-0.478-2.055-0.963-2.992-1.583
		c-8.433-5.581-16.386-11.811-24.111-18.312c-6.701-5.639-12.096-12.496-16.484-20.029c-5.821-9.992-8.222-20.82-6.55-32.387
		c0.548-3.788,1.848-7.312,4.163-10.404c4.458-5.953,11.146-7.92,18.082-5.297c1.231,0.465,2.492,0.947,3.591,1.651
		c8.154,5.226,15.311,11.36,18.587,20.931C420.108,402.849,420.289,402.966,420.693,403.421z M440.527,405.455
		c1.307,0.523,2.392,0.269,3.423,0.052c10.975-2.304,19.039-8.506,24.708-18.14c1.786-3.035,1.413-5.828,0.318-8.752
		c-1.553-4.149-4.531-6.788-8.984-7.19c-4.214-0.38-8.223,0.57-11.84,2.934c-5.832,3.811-10.464,8.799-14.425,14.472
		c-4.03,5.771-7.947,11.611-11.201,17.869c-0.493,0.948-0.983,2.04-2.372,1.798c-1.278-0.223-1.319-1.408-1.516-2.318
		c-0.561-2.586-1.428-5.05-2.878-7.253c-3.831-5.823-8.766-10.494-14.877-13.88c-0.941-0.521-1.955-0.931-2.967-1.303
		c-5.255-1.934-10.57-0.408-14.023,3.999c-2.109,2.692-3.312,5.791-3.871,9.122c-1.239,7.382-0.235,14.559,2.208,21.569
		c0.661,1.896,0.952,2.009,3.037,1.65c3.23-0.558,6.211-1.815,9.163-3.191c1.251-0.583,1.595-1.337,1.546-2.721
		c-0.108-3.036,0.511-5.936,2.701-8.261c1.932-2.052,4.425-2.555,6.004-1.236c1.533,1.281,1.533,3.558-0.047,5.898
		c-1.227,1.817-2.906,3.196-4.581,4.571c-1.982,1.627-2.006,2.484-0.027,4.166c0.543,0.461,1.176,0.84,1.817,1.16
		c3.659,1.825,7.488,2.454,11.555,1.748c8.746-1.518,15.76-5.941,21.44-12.635c0.505-0.595,1.206-1.108,1.208-2.034
		c-0.682-0.445-1.391-0.844-2.029-1.336c-1.484-1.144-2.08-2.711-1.854-4.537c0.305-2.466,1.579-4.401,3.6-5.799
		c1.698-1.175,3.437-0.872,4.821,0.691c1.409,1.591,1.4,3.464,1.005,5.366C441.354,403.07,440.924,404.165,440.527,405.455z
		 M437.137,434.804c3.876-0.583,6.801-2.094,9.488-4.104c3.549-2.654,6.792-5.675,9.844-8.869c2.171-2.272,4.485-4.596,5.943-7.321
		c3.636-6.8,5.797-14.167,7.001-21.793c0.07-0.443,0.435-1.085-0.46-1.356c-2.841,3.852-6.137,7.3-10.016,10.156
		c-5.372,3.955-11.436,6.113-18.062,6.484c-1.572,0.088-2.423,0.636-3.31,1.774c-4.174,5.356-9.271,9.57-15.553,12.274
		c-4.287,1.845-8.749,3.014-13.415,2.562c-4.367-0.423-8.645-1.522-11.315-5.436c-0.947-1.389-1.619-1.215-2.82-0.638
		c-2.85,1.37-5.802,2.455-8.973,2.877c-1.88,0.25-2.012,0.477-1.07,2.253c4.485,8.454,10.308,15.863,17.541,22.147
		c0.549,0.477,1.122,0.92,1.893,0.953c5.231,0.226,9.943-1.16,14.228-4.474c-0.797-0.586-1.485-0.999-2.059-1.534
		c-1.559-1.454-1.833-3.964-0.684-5.706c1.11-1.682,3.505-2.461,5.246-1.706c1.759,0.763,2.476,2.964,1.814,5.372
		c-0.153,0.558-0.747,1.065-0.217,1.905c3.921-0.279,7.226-1.971,10.225-4.443c-2.199-3.602-1.317-7.468,1.983-9.605
		c2.184-1.415,4.365-0.494,4.9,2.067c0.273,1.308-0.08,2.505-0.682,3.643C438.234,432.994,437.802,433.672,437.137,434.804z
		 M405.644,448.455c0.451,0.509,0.602,0.733,0.801,0.897c5.642,4.655,11.504,9.016,17.575,13.095
		c0.597,0.401,1.252,0.715,1.866,1.093c1.119,0.689,2.056,0.407,2.886-0.506c0.424-0.467,0.853-0.932,1.261-1.414
		c9.041-10.697,17.375-21.918,24.932-33.714c0.356-0.556,1.009-1.051,0.719-2.043c-0.491,0.415-0.911,0.745-1.302,1.104
		c-2.259,2.076-4.454,4.23-6.989,5.978c-3.469,2.391-7.157,4.239-11.52,4.078c-1.035-0.038-1.664,0.534-2.381,1.072
		c-3.617,2.714-7.534,4.636-12.204,4.415c-0.92-0.044-1.494,0.404-2.128,0.945c-2.309,1.97-5.002,3.211-7.934,3.909
		C409.487,447.78,407.715,448.056,405.644,448.455z M439.564,400.091c-0.051-1.836-1.113-2.934-2.351-2.43
		c-1.574,0.642-3.122,3.552-2.763,5.193c0.245,1.119,1.519,2.33,2.634,2.426c1.294,0.111,1.268-1.088,1.615-1.815
		C439.199,402.414,439.583,401.294,439.564,400.091z M398.054,414.678c2.235-1.85,4.137-3.29,5.356-5.437
		c0.262-0.461,0.49-0.978,0.575-1.495c0.254-1.555-0.845-2.389-2.297-1.777c-1.03,0.435-1.792,1.187-2.346,2.144
		C398.282,409.943,397.694,411.883,398.054,414.678z M421.029,437.172c0.033-1.368-0.834-2.368-2.03-2.342
		c-1.357,0.029-2.584,1.292-2.557,2.632c0.025,1.272,1.269,2.62,2.543,2.757C419.882,440.316,420.993,438.66,421.029,437.172z
		 M434.377,434.129c1.155-0.199,3.085-4.149,2.573-5.279c-0.217-0.479-0.59-0.633-1.091-0.46c-1.314,0.454-2.932,3.38-2.567,4.693
		C433.442,433.621,433.749,434.059,434.377,434.129z"/>
	<path d="M78.243,289.055c0.723-1.507,1.343-2.804,1.968-4.099c4.307-8.924,9.429-17.29,16.497-24.349
		c2.56-2.556,5.166-5.051,8.201-7.038c3.146-2.06,6.536-3.468,10.366-3.595c2.633-0.087,5.021,0.624,7.132,2.188
		c4.893,3.624,7.272,8.558,7.342,14.587c0.05,4.32-0.665,8.554-1.999,12.664c-5.776,17.794-14.923,33.677-27.544,47.462
		c-9.159,10.005-18.912,19.436-29.11,28.393c-2.859,2.51-5.707,5.033-8.568,7.541c-0.586,0.513-1.17,1.044-1.822,1.462
		c-1.365,0.875-2.941,0.933-3.466,0.096c-0.781-1.243-0.051-2.319,0.766-3.126c1.941-1.918,3.951-3.775,6.032-5.539
		c10.21-8.652,19.714-18.046,29.104-27.561c13.729-13.911,23.638-30.188,30.042-48.625c1.483-4.27,2.342-8.656,2.217-13.201
		c-0.108-3.909-1.604-7.204-4.489-9.826c-2.25-2.044-4.835-2.753-7.852-1.886c-3.155,0.906-5.926,2.443-8.429,4.538
		c-8.298,6.944-14.458,15.519-19.243,25.148c-1.737,3.494-3.438,7.003-4.688,10.711c-0.155,0.461-0.34,0.915-0.553,1.352
		c-0.499,1.024-1.21,1.787-2.461,1.741c-1.251-0.045-1.906-0.852-2.326-1.913c-0.793-2.003-1.281-4.092-1.706-6.196
		c-2.086-10.335-5.759-20.032-11.594-28.859c-2.27-3.434-4.89-6.569-7.958-9.325c-1.756-1.578-3.669-2.912-5.87-3.788
		c-4.569-1.818-7.964-0.703-10.441,3.548c-2.049,3.517-3.008,7.395-3.284,11.43c-0.472,6.906,0.595,13.642,2.721,20.18
		c3.963,12.187,9.408,23.737,15.576,34.944c2.84,5.16,6.59,9.659,10.918,13.666c0.748,0.692,2.066,1.42,1.067,2.584
		c-1.056,1.23-1.912-0.119-2.644-0.748c-5.227-4.493-9.595-9.74-12.989-15.721c-5.731-10.1-10.957-20.467-15.05-31.35
		c-3.017-8.021-4.639-16.312-3.791-24.951c0.346-3.523,1.222-6.906,2.628-10.152c0.584-1.348,1.353-2.59,2.245-3.759
		c3.271-4.284,7.547-5.614,12.707-4.329c3.606,0.898,6.549,2.956,9.261,5.388c4.852,4.351,8.61,9.569,11.721,15.242
		c3.817,6.96,6.643,14.32,8.325,22.097C77.401,286.999,77.502,287.947,78.243,289.055z"/>
	<path d="M243.07,432.81c-1.391-4.066-4.566-5.737-8.937-4.711c-4.798,1.126-7.572,4.582-9.453,7.467
		c-0.521,0.801-0.999,1.636-1.552,2.604c-0.241,0.421-0.497,0.87-0.78,1.355c-1.302-4.592-3.374-8.116-6.504-11.073
		c-0.508-0.479-0.507-1.105-0.507-1.768c0-0.116,0-0.23-0.002-0.344c-0.014-0.621-0.022-1.242-0.028-1.864
		c-0.016-1.405-0.032-2.858-0.139-4.283c-0.21-2.797-0.562-5.776-1.714-8.609c-0.955-2.351-2.575-3.986-4.56-4.603
		c-1.984-0.619-4.244-0.191-6.36,1.201c-1.483,0.975-2.675,2.257-3.866,3.594c-3.162,3.548-5.531,7.898-7.242,13.296
		c-0.063,0.199-0.112,0.402-0.163,0.617c-0.178,0.74-0.362,1.505-1.143,2.035c-1.611-3.188-3.249-5.885-5.007-8.241
		c-2.69-3.604-5.481-5.875-8.783-7.148c-3.331-1.287-6.342-0.451-8.475,2.349c-2.093,2.749-3.235,5.762-3.393,8.957
		c-0.251,5.057,0.953,9.835,3.681,14.605c1.624,2.841,1.617,3.301-0.449,6.368l-0.195-0.33c-0.207-0.35-0.407-0.689-0.605-1.028
		c-1.508-2.587-3.385-5.806-6.138-8.185c-2.466-2.13-4.815-3.196-7.39-3.356c-3.107-0.193-5.137,1.226-6.028,4.216
		c-0.607,2.033-0.394,4.099-0.106,5.852c0.636,3.87,2.019,7.634,4.227,11.505c3.656,6.414,8.334,12.208,14.299,17.717
		c1.408,1.3,3.02,2.428,4.421,3.384c0.744,0.508,1.34,0.769,1.892,0.768c0.693,0,1.316-0.41,2.074-1.257
		c1.008-1.125,1.871-2.397,2.634-3.518c0.504-0.742,1.018-1.477,1.533-2.214c1.865-2.667,3.793-5.424,5.286-8.6
		c3.868,4.382,7.918,8.013,11.496,11.221c1.226,1.1,1.841,1.654,2.408,1.572c0.56-0.08,0.995-0.779,1.784-2.047
		c1.976-3.176,3.96-6.346,5.94-9.509l2.343-3.744c0.028,0.007,0.054,0.012,0.078,0.016c0.04,0.009,0.089,0.018,0.097,0.022
		l0.098,0.112c0.217,0.247,0.441,0.503,0.625,0.775c3.287,4.839,7.351,8.961,12.08,12.247c1.81,1.258,2.039,1.231,3.511-0.376
		c0.834-0.912,1.659-1.832,2.484-2.751c1.492-1.665,3.035-3.386,4.609-5.023c4.412-4.594,7.893-9.152,10.641-13.936
		C244.504,443.42,244.935,438.259,243.07,432.81z M169.929,453.585c0.857-0.206,1.316-0.857,1.329-1.879
		c0.007-0.612,0.006-1.224,0.004-1.836l-0.001-0.799l-0.001-0.012c-0.477-5.03,1.694-9.049,6.638-12.285
		c1.081-0.707,2.356-0.947,3.592-0.667c1.355,0.305,2.535,1.178,3.321,2.462c1.101,1.799,1.494,3.757,1.166,5.819
		c-0.289,1.822-0.773,3.616-1.436,5.333c-2.565,6.635-6.354,13.319-11.924,21.035c-0.472,0.653-0.896,0.98-1.333,1.025
		c-0.4,0.042-0.834-0.156-1.326-0.602c-0.149-0.135-0.314-0.252-0.473-0.366c-0.161-0.115-0.314-0.223-0.452-0.349
		c-8.242-7.489-13.897-15.426-17.287-24.265c-0.85-2.217-1.363-4.403-1.523-6.495c-0.116-1.518-0.26-3.407,1.331-4.392
		c0.506-0.313,1.018-0.442,1.541-0.442c0.973,0,1.985,0.446,3.067,0.984c1.987,0.985,3.668,2.526,5.293,4.849
		c2.19,3.133,3.855,6.497,5.508,9.955l0.166,0.352c0.234,0.494,0.475,1.007,0.76,1.485
		C168.446,453.426,169.113,453.785,169.929,453.585z M186.152,454.129c1.492-2.633,2.501-5.716,2.998-9.164
		c0.536-3.714-0.322-6.867-2.552-9.372c-1.683-1.89-3.857-2.86-6.094-2.86c-1.647,0-3.329,0.526-4.872,1.599
		c-1.295,0.9-2.441,2.013-3.549,3.09c-0.234,0.227-0.468,0.454-0.703,0.679c-4.683-5.872-5.51-14.605-1.915-20.371
		c1.833-2.94,3.656-3.452,6.726-1.897c2.332,1.182,4.38,2.957,6.088,5.275c2.755,3.739,4.809,7.49,6.281,11.467
		c0.05,0.136,0.102,0.271,0.154,0.407c0.088,0.227,0.175,0.456,0.255,0.686c0.037,0.107,0.073,0.216,0.11,0.327
		c0.35,1.058,0.749,2.255,2.226,1.997c1.308-0.227,1.433-1.372,1.543-2.383c0.02-0.183,0.04-0.366,0.066-0.544
		c1.209-8.164,4.102-14.679,8.844-19.92c0.573-0.633,1.121-1.155,1.675-1.597c1.715-1.363,3.225-1.86,4.484-1.471
		c1.245,0.381,2.202,1.608,2.846,3.647c0.671,2.128,1.074,4.467,1.232,7.155c0.052,0.878,0.064,1.775,0.075,2.642
		c0.006,0.482,0.012,0.964,0.025,1.444c0.011,0.414-0.06,0.688-0.224,0.859c-0.184,0.193-0.513,0.284-1.067,0.296
		c-5.768,0.121-8.783,2.889-9.49,8.709c-0.4,3.289-0.084,6.511,0.939,9.576c0.115,0.343,0.224,0.692,0.334,1.041
		c0.419,1.336,0.852,2.715,1.605,3.866c1.743,2.661,1.635,5.28-0.353,8.487c-1.472,2.377-2.912,4.83-4.303,7.201
		c-0.557,0.948-1.114,1.897-1.673,2.844c-0.254,0.43-0.538,0.835-0.886,0.884c-0.254,0.036-0.563-0.111-0.93-0.455
		c-3.034-2.842-6.473-6.061-9.396-9.577C185.348,457.127,185.203,455.804,186.152,454.129z M205.28,432.47
		c0.766-1.611,1.838-2.666,3.098-3.051c1.261-0.383,2.668-0.123,4.185,0.775c2.704,1.602,4.226,4.26,5.25,6.397
		c0.784,1.636,1.265,3.411,1.73,5.127c0.163,0.599,0.325,1.199,0.5,1.794c0.049,0.167,0.095,0.335,0.141,0.504
		c0.159,0.588,0.324,1.196,0.627,1.72c0.359,0.621,0.907,0.976,1.504,0.976c0.002,0,0.005,0,0.008,0
		c0.599-0.003,1.146-0.363,1.499-0.989c0.256-0.454,0.395-0.973,0.529-1.475c0.066-0.25,0.135-0.509,0.218-0.753
		c1.363-4.053,3.095-7.069,5.451-9.492c1.359-1.399,3.079-2.328,5.257-2.842c2.261-0.539,3.704,0.203,4.54,2.32
		c1.759,4.456,1.507,8.775-0.75,12.837c-2.149,3.867-4.886,7.644-8.368,11.546c-2.134,2.392-4.375,4.761-6.542,7.052l-1.415,1.497
		c-1.325,1.408-1.326,1.406-2.866,0.188c-2.403-1.901-4.585-4.142-6.485-6.663c-4.47-5.931-7.465-12.883-8.9-20.663
		c-0.071-0.385-0.09-0.783-0.107-1.168c-0.008-0.174-0.016-0.346-0.029-0.512C204.418,435.972,204.49,434.132,205.28,432.47z"/>
	<g>
		<path d="M65.891,400.312c0.762-2.403,1.631-4.779,2.264-7.215c1.251-4.822,4.12-8.539,7.661-11.873
			c2.146-2.02,4.668-2.326,7.355-1.788c2.133,0.427,3.211,2.03,3.867,3.996c1.376,4.122,0.981,8.292,0.322,12.452
			c-0.351,2.216-1.015,4.365-1.911,6.434c-4.285,9.894-9.655,19.149-16.3,27.646c-1.138,1.456-2.456,2.773-3.704,4.142
			c-0.483,0.529-1.051,0.906-1.804,0.551c-0.686-0.323-1.118-0.921-0.968-1.644c0.507-2.431-0.731-4.361-1.729-6.349
			c-1.752-3.492-3.839-6.772-6.117-9.957c-4.26-5.955-8.175-12.131-10.925-18.964c-1.661-4.128-2.546-8.389-2.115-12.864
			c0.056-0.582,0.069-1.171,0.16-1.748c0.848-5.369,4.749-7.258,9.331-4.361c4.559,2.883,7.836,6.984,10.283,11.75
			C63.164,393.646,64.126,397.037,65.891,400.312z M61.092,396.981c-0.145-2.815-1.619-5.05-3.121-7.272
			c0.982,2.443,1.699,5.005,3.174,7.23c0.44,2.997,2.202,8.263,3.557,10.232c-0.517-2.964-1.533-5.341-2.339-7.771
			C62.079,398.543,62.14,397.454,61.092,396.981z M60.305,410.75c-0.511-4.396-3.31-11.905-5.292-14.173
			C56.765,401.712,57.804,406.519,60.305,410.75z M70.164,406.391c0.997-3.178,2.278-6.352,2.452-9.785
			C71.201,399.697,70.532,402.975,70.164,406.391z M50.491,391.81c-0.353-1.773-0.725-3.455-2.094-5.029
			C48.198,389.075,48.93,390.65,50.491,391.81z M82.297,384.828c-0.137-1.397-0.834-1.537-2.293-1.068
			C80.933,384.175,81.309,384.852,82.297,384.828z M84.852,395.11c0.074-0.172,0.213-0.339,0.198-0.492
			c-0.028-0.292,0.239-0.694-0.249-0.855C84.667,394.215,84.504,394.667,84.852,395.11z"/>
		<path d="M100.934,429.695c1.297-0.26,1.849-1.002,2.545-1.502c3.068-2.203,6.491-3.532,10.18-4.21
			c3.682-0.676,6.469,0.687,8.5,3.772c3.133,4.76,2.375,11.363-1.826,15.582c-1.804,1.812-3.941,3.181-6.143,4.445
			c-6.699,3.846-13.793,6.805-21.055,9.398c-4.767,1.702-9.657,3.072-14.253,5.242c-1.579,0.746-3.276,1.276-4.459,2.694
			c-0.383,0.459-0.917,0.749-1.553,0.459c-0.742-0.338-0.885-0.979-0.793-1.71c0.085-0.677,0.133-1.365,0.289-2.026
			c2.53-10.727,5.327-21.369,10.067-31.388c2.693-5.691,5.964-10.959,10.921-15.002c1.211-0.987,2.439-1.953,3.842-2.652
			c3.47-1.728,6.047-0.25,6.25,3.59c0.13,2.467-0.491,4.826-1.048,7.204C101.939,425.556,101.025,427.424,100.934,429.695z
			 M102.376,440.912c0.112,0.13,0.224,0.26,0.335,0.391c4.847-2.796,9.691-5.599,14.547-8.379c0.593-0.34,0.782-0.815,0.752-1.434
			c-0.033-0.696-0.111-1.437-0.901-1.656c-0.977-0.271-1.924-0.189-2.615,0.721c-2.022,2.662-4.715,4.589-7.295,6.635
			C105.609,438.452,103.985,439.673,102.376,440.912z M112.818,443.693c2.029-0.453,3.518-1.472,3.997-3.545
			C115.482,441.33,114.15,442.512,112.818,443.693z M97.166,423.637c-0.866,0.702-1.491,1.552-1.909,2.879
			C96.795,425.854,97.125,424.838,97.166,423.637z M89.776,426.733c-0.92,1.002-1.421,1.693-1.476,2.889
			C89.091,428.773,89.579,428.103,89.776,426.733z"/>
		<path d="M40.065,436.565c0.063-2.05,0.23-4.063,0.647-6.035c0.614-2.909,1.642-5.611,4-7.615c2.698-2.293,5.319-2.108,7.634,0.61
			c2.25,2.64,3.048,5.885,3.41,9.189c0.946,8.652,0.938,17.313-0.232,25.957c-0.34,2.51-0.575,5.035-0.941,7.542
			c-0.167,1.146-0.264,2.335-0.829,3.388c-0.98,1.828-1.67,2.043-3.497,1.117c-0.26-0.132-0.522-0.268-0.762-0.432
			c-9.146-6.26-17.685-13.138-23.498-22.836c-2.628-4.384-4.692-8.974-5.527-14.054c-0.334-2.038-0.403-4.069,0.17-6.085
			c0.884-3.107,2.992-4.25,6.02-3.177c2.056,0.728,3.752,2.056,5.348,3.501c2.469,2.236,4.52,4.837,6.477,7.519
			C38.861,435.669,39.048,436.411,40.065,436.565z M40.204,454.441c-2.158-5.315-8.124-14.623-10.459-16.204
			C32.279,444.716,36.397,449.488,40.204,454.441z M28.794,447.113c2.257,4.87,5.869,9.228,8.868,10.962
			C34.465,454.123,31.629,450.618,28.794,447.113z M49.674,427.879c-0.525,2.812-0.138,6.904,0.956,11.062
			C50.575,435.048,50.745,431.735,49.674,427.879z M45.713,452.163c0.324-2.019,0.255-4.012-0.269-5.975
			C44.656,448.238,45.476,450.181,45.713,452.163z M26.901,431.168c-0.377,1.034,0.232,1.871,0.513,2.75
			c0.129,0.401,0.598,0.48,0.984,0.356c0.458-0.147,0.505-0.528,0.314-0.915C28.289,432.498,27.887,431.61,26.901,431.168z
			 M44.549,436.005c-0.02,0.026-0.04,0.052-0.061,0.077c0,1.11,0,2.221,0,3.331c0.02-0.002,0.041-0.004,0.061-0.006
			C44.549,438.273,44.549,437.139,44.549,436.005z M29.814,429.932c-0.556-1.786-0.749-1.946-3.301-2.472
			C27.566,428.25,28.62,429.038,29.814,429.932z M46.905,424.637c-1.01,0.479-1.74,0.771-1.415,1.761
			c0.038,0.117,0.339,0.255,0.471,0.217C46.778,426.385,46.632,425.628,46.905,424.637z"/>
	</g>
	<g>
		<path d="M415.052,88.307c0.652-2.474,1.247-4.731,1.842-6.989c1.162-4.412,2.521-8.765,4.434-12.91
			c3.992-8.65,10.279-14.945,19.267-18.369c1.965-0.749,4.008-1.208,6.121-1.319c4.052-0.213,7.032,1.51,9.024,5
			c2.003,3.508,2.593,7.364,2.668,11.322c0.122,6.514-1.005,12.874-2.334,19.224c-2.583,12.336-7.694,23.721-13.087,34.986
			c-5.882,12.285-13.348,23.634-21.126,34.779c-2.92,4.183-5.57,8.562-8.918,12.437c-1.013,1.172-2.004,2.367-3.082,3.477
			c-0.697,0.718-1.585,0.905-2.475,0.266c-0.966-0.694-1.274-1.743-0.572-2.616c1.225-1.522,0.839-3.036,0.468-4.652
			c-2.041-8.884-5.798-17.068-10.308-24.916c-3.271-5.692-6.434-11.435-9.369-17.306c-6.1-12.202-10.699-24.944-13.573-38.281
			c-1.279-5.935-1.314-11.944-0.345-17.945c0.486-3.009,1.588-5.793,3.218-8.362c3.229-5.088,7.623-6.707,13.417-4.948
			c3.696,1.122,6.621,3.409,9.132,6.25c5.134,5.808,8.927,12.414,11.481,19.724c1.021,2.923,1.904,5.894,2.899,8.827
			C414.079,86.712,414.105,87.595,415.052,88.307z M409.99,163.336c0.964-0.662,1.529-1.495,2.093-2.293
			c2.155-3.049,4.269-6.128,6.397-9.196c7.533-10.861,14.822-21.879,20.569-33.817c5.455-11.332,10.627-22.78,13.22-35.202
			c1.383-6.622,2.453-13.256,1.965-20.055c-0.172-2.396-0.765-4.674-1.887-6.795c-1.362-2.576-3.182-3.525-6.049-3.181
			c-1.541,0.185-3.036,0.559-4.492,1.121c-7.71,2.972-13.111,8.381-16.6,15.775c-1.674,3.549-2.903,7.271-3.952,11.048
			c-1.024,3.684-1.977,7.388-3.005,11.07c-0.268,0.958-0.58,1.942-1.084,2.788c-1.23,2.066-3.3,2.074-4.537,0.025
			c-0.511-0.846-0.837-1.819-1.151-2.766c-1.46-4.408-2.815-8.851-4.341-13.235c-2.42-6.956-5.975-13.276-10.936-18.76
			c-1.986-2.196-4.283-3.953-7.157-4.837c-3.848-1.184-6.559-0.207-8.669,3.189c-1.506,2.424-2.46,5.055-2.884,7.897
			c-1.111,7.457-0.034,14.696,1.981,21.872c4.551,16.212,11.059,31.611,19.136,46.364c4.786,8.742,8.856,17.765,10.909,27.587
			C409.604,162.359,409.794,162.764,409.99,163.336z"/>
		<path d="M448.98,134.756c-0.145,0.313-0.326,0.832-0.607,1.29c-1.811,2.948-3.614,5.901-5.486,8.81
			c-0.56,0.87-1.246,2.217-2.501,1.397c-1.308-0.855-0.243-1.9,0.34-2.796c2.036-3.128,4.071-6.256,6.093-9.393
			c0.316-0.491,0.662-0.893,1.3-0.74C448.737,133.471,448.99,133.926,448.98,134.756z"/>
		<path d="M421.91,170.058c-0.01,0.477-0.192,0.882-0.508,1.232c-2.137,2.369-3.837,5.104-6.133,7.338
			c-0.518,0.504-1.084,0.973-1.684,1.376c-0.597,0.4-1.246,0.342-1.717-0.233c-0.498-0.608-0.295-1.26,0.225-1.704
			c1.183-1.008,2.304-2.071,3.31-3.254c1.475-1.735,2.944-3.476,4.404-5.224c0.377-0.451,0.801-0.75,1.409-0.574
			C421.723,169.162,421.897,169.565,421.91,170.058z"/>
		<path d="M356.713,80.797c-0.007,0.824-0.241,1.516-1.132,1.613c-0.757,0.082-1.153-0.532-1.335-1.138
			c-0.206-0.687-0.223-1.429-0.335-2.145c-0.477-3.06-0.429-6.153-0.56-9.234c-0.028-0.659,0.134-1.361,0.907-1.464
			c0.882-0.118,1.361,0.456,1.381,1.298C355.727,73.453,356.123,77.148,356.713,80.797z"/>
		<path d="M436.11,151.4c0.688,0.05,1.138,0.459,0.987,1.226c-0.102,0.515-0.378,1.023-0.674,1.469
			c-1.763,2.656-3.698,5.186-5.725,7.644c-0.285,0.346-0.628,0.658-0.99,0.924c-0.396,0.292-0.846,0.292-1.265,0.002
			c-0.521-0.36-0.666-0.885-0.443-1.434c0.166-0.41,0.469-0.775,0.757-1.122c2.095-2.519,4.207-5.024,6.03-7.754
			C435.097,151.892,435.406,151.452,436.11,151.4z"/>
		<path d="M449.792,32.415c2.952,0.494,5.954,0.788,8.676,2.191c0.484,0.25,0.969,0.5,1.436,0.78
			c0.599,0.358,1.01,0.855,0.612,1.566c-0.375,0.672-1.007,0.723-1.649,0.401c-2.213-1.111-4.54-1.837-7-2.126
			c-0.902-0.106-1.808-0.178-2.711-0.276c-0.88-0.096-1.681-0.355-1.533-1.458c0.119-0.885,0.837-1.098,1.624-1.107
			C449.428,32.382,449.61,32.405,449.792,32.415z"/>
		<path d="M453.074,125.387c-0.561-0.058-0.908-0.435-0.997-1.038c-0.086-0.576,0.196-1.067,0.474-1.535
			c1.44-2.426,2.882-4.851,4.356-7.257c0.277-0.452,0.649-0.881,1.069-1.199c0.384-0.291,0.859-0.188,1.246,0.145
			c0.315,0.271,0.335,0.63,0.29,0.994c-0.022,0.175-0.1,0.352-0.189,0.508c-1.617,2.849-3.232,5.699-4.868,8.537
			C454.178,125.022,453.768,125.392,453.074,125.387z"/>
		<path d="M398.433,167.467c-0.761,0.04-1.153-0.448-1.454-1.039c-1.403-2.758-2.813-5.512-4.186-8.285
			c-0.35-0.708-0.366-1.462,0.469-1.877c0.748-0.372,1.238,0.146,1.548,0.715c1.523,2.798,3.048,5.596,4.483,8.439
			C399.868,166.559,399.404,167.451,398.433,167.467z"/>
		<path d="M467.136,43.155c0.825,0.047,1.431,0.61,1.956,1.244c1.768,2.134,2.909,4.601,3.681,7.24
			c0.196,0.671,0.414,1.56-0.49,1.877c-0.983,0.345-1.488-0.405-1.826-1.201c-0.354-0.836-0.613-1.716-1.003-2.535
			c-0.812-1.704-1.356-3.592-3.141-4.66c-0.501-0.3-0.742-0.809-0.41-1.399C466.15,43.281,466.581,43.153,467.136,43.155z"/>
		<path d="M364.52,106.25c0.555,0.02,0.992,0.514,1.311,1.053c1.479,2.496,2.931,5.008,4.363,7.531
			c0.384,0.676,0.493,1.439-0.27,1.93c-0.793,0.51-1.444,0.025-1.82-0.627c-1.585-2.747-3.139-5.514-4.636-8.31
			C363.063,107.071,363.606,106.246,364.52,106.25z"/>
		<path d="M374.52,37.197c0.027,0.643-0.318,1.098-0.85,1.281c-2.871,0.989-5.046,2.84-6.794,5.275
			c-0.336,0.468-0.912,0.652-1.461,0.325c-0.541-0.323-0.604-0.891-0.462-1.447c0.088-0.344,0.247-0.693,0.458-0.978
			c1.899-2.577,4.381-4.338,7.445-5.285C373.711,36.104,374.271,36.313,374.52,37.197z"/>
		<path d="M361.175,49.479c-0.076,0.244-0.211,0.671-0.343,1.099c-0.641,2.075-1.277,4.151-1.923,6.224
			c-0.188,0.604-0.355,1.223-0.62,1.794c-0.281,0.604-0.753,1.086-1.497,0.837c-0.689-0.23-0.968-0.798-0.82-1.509
			c0.11-0.53,0.277-1.05,0.451-1.564c0.81-2.401,1.64-4.795,2.441-7.199c0.228-0.685,0.621-1.116,1.374-1.025
			C360.874,48.214,361.143,48.66,361.175,49.479z"/>
		<path d="M473.827,79.128c-0.498,2.209-1.086,4.955-1.755,7.682c-0.176,0.717-0.669,1.411-1.547,1.209
			c-1.072-0.247-0.996-1.115-0.795-1.965c0.603-2.556,1.261-5.102,1.769-7.677c0.165-0.836,0.056-1.765,1.221-1.661
			C473.784,76.811,473.849,77.718,473.827,79.128z"/>
		<path d="M362.05,98.885c0.027,0.931-0.274,1.367-0.822,1.577c-0.462,0.178-0.901-0.004-1.208-0.374
			c-0.225-0.271-0.427-0.585-0.549-0.913c-0.915-2.449-1.813-4.904-2.704-7.361c-0.256-0.706-0.425-1.492,0.419-1.877
			c0.861-0.392,1.371,0.252,1.656,0.945C359.973,93.632,361.058,96.4,362.05,98.885z"/>
		<path d="M386.464,34.691c1.673,0.125,3.481,0.301,5.223,0.874c0.429,0.141,0.869,0.288,1.256,0.513
			c0.576,0.334,1.039,0.786,0.677,1.541c-0.28,0.583-0.814,0.75-1.374,0.553c-2.709-0.955-5.458-1.323-8.307-0.757
			c-0.571,0.113-1.117-0.138-1.322-0.72c-0.256-0.726,0.14-1.249,0.767-1.542C384.309,34.722,385.316,34.68,386.464,34.691z"/>
		<path d="M405.35,181.714c0.074,1.202-0.215,1.742-0.93,1.899c-0.761,0.167-1.217-0.352-1.423-0.969
			c-0.855-2.564-1.656-5.147-2.475-7.723c-0.082-0.258-0.185-0.514-0.226-0.779c-0.075-0.475,0.046-0.92,0.49-1.152
			c0.539-0.282,1.044-0.169,1.443,0.312c0.058,0.069,0.131,0.136,0.161,0.217C403.432,176.396,404.47,179.274,405.35,181.714z"/>
		<path d="M388.822,146.8c0.013,0.839-0.961,1.339-1.808,0.934c-0.613-0.293-0.889-0.875-1.218-1.408
			c-1.184-1.915-2.02-4.037-3.466-5.799c-0.456-0.556-0.514-1.152,0.075-1.673c0.583-0.515,1.225-0.449,1.673,0.108
			c1.873,2.33,3.171,5.023,4.69,7.577C388.81,146.611,388.804,146.712,388.822,146.8z"/>
		<path d="M472.781,65.476c-0.025-1.64,0.1-3.185-0.185-4.722c-0.109-0.584,0.112-1.09,0.778-1.217
			c0.61-0.117,1.11,0.143,1.327,0.696c0.194,0.496,0.278,1.05,0.322,1.586c0.194,2.36,0.172,4.723,0.005,7.084
			c-0.032,0.451-0.06,0.923-0.212,1.341c-0.227,0.624-0.65,1.155-1.406,1.012c-0.625-0.119-0.849-0.676-0.834-1.25
			C472.618,68.464,472.712,66.922,472.781,65.476z"/>
		<path d="M406.667,49.018c-0.04,0.482-0.226,0.879-0.7,1.066c-0.486,0.192-0.888-0.028-1.226-0.348
			c-0.192-0.182-0.35-0.419-0.47-0.658c-1.072-2.139-2.558-3.967-4.259-5.624c-0.671-0.654-1.061-1.356-0.284-2.087
			c0.703-0.661,1.349-0.124,1.88,0.406c1.611,1.605,3.172,3.257,4.363,5.213C406.349,47.608,406.692,48.252,406.667,49.018z"/>
		<path d="M414.911,63.135c-0.058,0.904-0.187,1.326-0.68,1.519c-0.478,0.188-0.913,0.04-1.241-0.298
			c-0.246-0.253-0.442-0.579-0.581-0.907c-0.957-2.259-1.884-4.531-2.842-6.79c-0.245-0.578-0.208-1.064,0.309-1.44
			c0.518-0.377,1.159-0.334,1.47,0.141C412.999,57.883,413.952,60.722,414.911,63.135z"/>
		<path d="M421.773,49.167c-0.085,0.261-0.21,0.694-0.365,1.117c-0.747,2.041-1.514,4.076-2.249,6.122
			c-0.299,0.831-0.675,1.591-1.719,1.226c-0.855-0.299-0.921-1.089-0.649-1.824c0.91-2.463,1.849-4.915,2.825-7.352
			c0.209-0.521,0.703-0.883,1.316-0.711C421.51,47.906,421.794,48.366,421.773,49.167z"/>
		<path d="M468.498,97.413c-0.281,0.854-0.514,1.729-0.853,2.559c-0.715,1.755-1.214,3.613-2.283,5.203
			c-0.352,0.523-0.914,0.95-1.626,0.602c-0.731-0.358-0.685-1.002-0.43-1.634c0.982-2.431,1.976-4.856,2.977-7.279
			c0.235-0.569,0.715-0.856,1.3-0.721C468.18,96.28,468.468,96.74,468.498,97.413z"/>
		<path d="M435.613,34.172c0.023,0.609-0.288,1.041-0.772,1.343c-1.936,1.209-3.585,2.75-5.152,4.389
			c-0.621,0.65-1.376,1.051-2.105,0.302c-0.626-0.643-0.226-1.366,0.296-1.919c1.747-1.85,3.638-3.54,5.88-4.768
			C434.768,32.967,435.584,33.32,435.613,34.172z"/>
		<path d="M373.105,122.053c0.453,0.009,0.794,0.321,1.077,0.669c1.369,1.688,2.595,3.478,3.664,5.369
			c0.381,0.674,0.48,1.443-0.297,1.912c-0.782,0.473-1.375,0.038-1.796-0.65c-1.129-1.848-2.169-3.751-3.615-5.393
			c-0.375-0.425-0.362-1.014-0.02-1.516C372.338,122.124,372.668,121.999,373.105,122.053z"/>
	</g>
	<g>
		<path d="M266.05,304.219c-1.42-3.721-4.272-6.928-7.893-8.869c-3.635-1.948-8.033-2.227-11.857-0.603
			c-3.874,1.645-6.679,4.967-8.729,8.398c-0.208,0.348-0.408,0.703-0.609,1.056c-2.614-2.771-5.803-5.022-9.31-6.354
			c-4.061-1.543-8.628-1.565-12.265,0.947c-2.96,2.045-4.669,5.426-5.497,8.736c-2.843,11.364,1.512,22.991,7.092,32.945
			c1.3,2.319,15.611,25.589,18.098,23.54c7.218-5.947,13.591-12.819,18.839-20.413c5.281-7.641,10.048-16.302,12.301-25.242
			C267.378,313.766,267.775,308.74,266.05,304.219z M237.619,310.445c1.451,2.476,2.479,5.225,2.796,8.035
			c0.19,1.684,0.172,3.422-0.174,5.087c-0.318,1.531-0.827,3.452-1.911,4.666c-0.618,0.691-0.968,0.149-1.406-0.506
			c-0.554-0.829-0.871-1.846-1.133-2.789c-0.55-1.98-0.623-4.055-0.429-6.087C235.636,315.969,236.498,313.152,237.619,310.445z
			 M263.061,316.95c-1.831,7.933-5.84,15.638-10.263,22.535c-4.352,6.787-9.573,13.095-15.552,18.652
			c-0.848,0.788-1.665,1.615-2.712,2.141c1.135-0.571-19.866-21.057-21.664-42.419c-0.478-5.675-0.446-14.058,5.378-17.469
			c3.477-2.037,7.664-0.64,10.823,1.292c2.423,1.483,4.54,3.382,6.304,5.544c-1.321,2.751-2.379,5.632-2.996,8.566
			c-0.893,4.252-0.987,9.262,1.454,13.106c1.063,1.674,3.009,2.772,5.089,2.258c2.08-0.513,3.135-2.494,3.849-4.25
			c1.443-3.553,1.51-7.453,0.628-11.138c-0.739-3.087-2.2-6.119-4.172-8.846c2.825-5.666,8.365-13.023,15.957-9.881
			C263.316,300.407,264.767,309.558,263.061,316.95z"/>
		<path d="M286.005,290.918c-3.088-11.237-12.555-20.47-25.118-21.265c-11.804-0.747-20.1,7.373-25.184,16.601
			c-1.684-3.605-3.653-7.098-6.43-10.019c-3.898-4.101-9.151-7.097-15.08-7.243c-11.28-0.278-19.315,9.522-22.622,18.77
			c-8.453,23.635,3.557,47.795,16.523,67.582c2.778,4.24,24.624,39.854,30.707,34.208c18.348-17.029,32.765-37.746,41.916-60.543
			C285.544,316.989,289.532,303.751,286.005,290.918z M276.284,326.719c-4.148,10.598-9.449,20.769-15.803,30.324
			c-6.818,10.253-14.819,19.794-23.835,28.373c-7.755-8.159-14.25-17.305-20.482-26.546c-6.352-9.417-12.565-19.011-16.854-29.472
			c-4.223-10.302-6.457-21.468-4.833-32.511c1.298-8.829,5.696-19.784,15.201-23.259c5.063-1.851,10.211,0.151,14.009,3.481
			c4.702,4.123,7.108,10.068,9.433,15.586c0.798,1.893,4.16,1.916,4.949,0c3.415-8.301,9.818-18.566,20.329-19.149
			c11.347-0.629,19.753,8.298,22.554,17.993C284.354,303.322,280.621,315.637,276.284,326.719z"/>
	</g>
	<path d="M174.516,300.979c-3.194-4.328-9.149-4.131-13.313-1.421c-2.148,1.398-3.56,3.347-4.533,5.547
		c-0.538-2.014-1.262-3.96-2.471-5.726c-2.746-4.012-7.665-6.506-12.442-4.663c-4.861,1.875-6.877,7.065-6.961,11.933
		c-0.095,5.47,1.599,10.822,3.775,15.778c2.647,6.028,5.773,11.906,9.062,17.607c2.703,4.674,16.305-9.208,18.098-11.087
		c3.751-3.929,7.264-8.325,9.277-13.423C176.774,311.054,177.562,305.107,174.516,300.979z M170.053,315.852
		c-1.92,4.155-4.974,7.808-8.112,11.097c-3.483,3.651-7.415,6.866-11.605,9.676c-1.917-3.835-3.888-7.643-5.748-11.506
		c-2.077-4.311-4.005-8.793-4.847-13.531c-0.697-3.924-0.938-9.132,2.044-12.242c1.074-1.121,2.556-1.887,4.125-1.544
		c1.673,0.365,3.039,1.634,4.036,2.967c3.119,4.173,2.965,9.913,4.555,14.706c0.688,2.074,4.219,1.614,4.474-0.484
		c0.483-3.967,0.977-8.93,4.096-11.818c2.417-2.237,6.252-2.978,8.002,0.42C173.017,307.37,171.724,312.235,170.053,315.852z"/>
	<g>
		<path d="M354.868,383.01c-5.344-9.763-17.219-12.055-27.072-8.297c-9.607,3.665-15.19,12.604-17.974,22.125
			c-3.939-8.12-8.999-15.864-17.56-19.581c-10.093-4.382-21.691-0.417-28.075,8.304c-6.92,9.453-6.686,22.202-3.003,32.854
			c3.73,10.785,10.421,20.755,17.727,29.44c5.988,7.118,12.202,14.362,19.775,19.854c2.774,2.012,8.195,6.196,11.894,5.834
			c3.774-0.369,8.221-5.907,11.022-8.478c14.922-13.697,28.283-30.032,33.964-49.812C358.49,405.075,360.184,392.722,354.868,383.01
			z M352.482,413.143c-3.072,11.207-8.693,21.536-15.701,30.756c-7.721,10.158-17.039,18.931-26.806,27.092
			c-17.701-11.697-33.322-27.603-42.603-46.872c-4.728-9.815-7.352-21.249-3.398-31.792c3.293-8.78,12.387-16.238,22.19-14.072
			c12.046,2.662,19.705,13.225,23.168,25.697c0.611,2.202,2.353,1.783,2.705-0.512c1.487-9.681,4.534-20.26,15.967-25.493
			c4.081-1.868,8.646-3.137,13.103-2.308c4.622,0.86,8.299,3.66,10.631,7.711c2.374,4.123,3.083,9.113,3.092,13.8
			C354.839,402.55,353.906,407.949,352.482,413.143z"/>
		<path d="M328.303,411.82c-1.83-1.93-4.842-1.821-7.181-1.022c-2.51,0.858-4.611,2.63-6.149,4.764
			c-1.853,2.571-3.003,5.635-3.862,8.663c-0.538,1.896-0.924,3.832-1.19,5.784c-1.01-3.626-2.251-7.189-4.255-10.395
			c-1.277-2.043-2.916-4.165-5.193-5.143c-2.124-0.912-4.511-0.518-6.197,1.071c-3.597,3.391-3.605,9.269-2.689,13.754
			c1.088,5.326,3.742,10.272,6.608,14.839c3.033,4.833,6.742,9.364,11.598,12.459c0.11,0.07,0.236,0.113,0.364,0.139
			c0.292,0.19,0.721,0.229,0.999-0.051c4.028-4.047,7.606-8.524,10.622-13.374c3.039-4.888,5.688-10.172,7.198-15.745
			c0.773-2.854,1.238-5.813,1.211-8.775C330.167,416.445,330.01,413.62,328.303,411.82z M325.768,427.681
			c-1.24,4.69-3.399,9.138-5.898,13.279c-2.668,4.42-5.857,8.524-9.476,12.206c-3.391-2.29-6.122-5.371-8.428-8.732
			c-2.519-3.671-4.792-7.666-6.211-11.899c-0.723-2.157-1.199-4.402-1.227-6.684c-0.025-2.036,0.25-4.194,1.229-6.01
			c0.795-1.476,2.19-2.898,4.004-2.71c2.059,0.213,3.601,2.108,4.692,3.69c2.818,4.086,4.037,9.013,5.22,13.763
			c0.156,0.627,1.351,0.504,1.37-0.148c0.077-2.599,0.414-5.181,1.036-7.706c0.586-2.376,1.366-4.773,2.527-6.936
			c1.047-1.951,2.485-3.766,4.422-4.893c1.671-0.972,4.359-1.785,6.045-0.414c1.613,1.312,1.662,3.94,1.679,5.832
			C326.772,422.807,326.403,425.279,325.768,427.681z"/>
		<path d="M345.577,400.661c-1.396-3.579-4.096-6.659-7.802-7.897c-3.964-1.324-8.311-0.376-11.953,1.452
			c-7.213,3.619-12.772,10.61-15.493,18.121c-0.068,0.187-0.125,0.378-0.19,0.566c-2.809-6.543-7.455-12.532-13.405-16.423
			c-3.189-2.086-6.936-3.644-10.802-3.622c-3.822,0.022-7.313,1.808-9.54,4.918c-2.441,3.408-3.109,7.678-2.846,11.784
			c0.277,4.326,1.311,8.653,2.643,12.767c2.658,8.205,6.925,15.851,12.144,22.695c5.277,6.921,11.521,13.068,18.223,18.603
			c0.853,0.704,1.714,1.399,2.581,2.086c0.038,0.03,0.084,0.042,0.126,0.063c0.316,0.268,0.863,0.367,1.219,0.046
			c6.296-5.69,12.352-11.682,17.759-18.232c5.363-6.496,10.082-13.573,13.525-21.28c1.753-3.924,3.202-8.022,4.143-12.219
			C346.894,409.69,347.247,404.944,345.577,400.661z M342.972,413.504c-0.782,3.9-2.08,7.719-3.633,11.376
			c-2.995,7.052-7.163,13.551-11.918,19.539c-4.845,6.101-10.306,11.686-16.022,16.971c-0.537,0.496-1.078,0.988-1.619,1.479
			c-6.034-4.872-11.742-10.186-16.706-16.156c-5.016-6.032-9.265-12.724-12.23-20.001c-1.468-3.602-2.619-7.337-3.379-11.153
			c-0.798-4.003-1.276-8.325,0.025-12.276c1.053-3.197,3.324-6.151,6.651-7.153c3.35-1.009,6.935-0.054,9.964,1.488
			c3.215,1.637,6.029,4.091,8.405,6.785c2.441,2.766,4.467,5.902,5.95,9.28c0.362,0.825,0.691,1.664,0.992,2.514
			c0.215,0.607,1.407,0.678,1.585,0c1.882-7.176,6.322-13.72,12.476-17.911c3.034-2.066,6.873-3.657,10.611-3.18
			c3.614,0.461,6.444,2.977,7.959,6.207C343.869,405.122,343.783,409.457,342.972,413.504z"/>
	</g>
	<path d="M476.718,310.764c-3.785-2.099-8.739-2.315-12.968-2.479c-6.473-0.252-12.908,0.428-19.334,1.162
		c7.559-3.663,14.73-7.918,21.323-13.265c3.611-2.929,7.661-6.228,9.266-10.758c1.521-4.293,0.018-9.612-4.966-10.466
		c-4.737-0.812-9.471,1.552-12.769,4.805c-1.331,1.313-2.508,2.751-3.579,4.267c0.308-2.537,0.438-5.095,0.362-7.651
		c-0.061-2.069,0.156-5.171-1.222-6.886c-1.416-1.762-4.09-1.549-5.993-0.852c-4.129,1.512-6.329,5.907-7.75,9.771
		c-1.778,4.836-2.583,10.003-2.874,15.131c-0.051,0.901-0.082,1.803-0.104,2.704c-0.151-0.647-0.299-1.296-0.454-1.941
		c-0.947-3.943-2.212-7.82-4.279-11.33c-1.786-3.032-4.404-5.563-8.189-4.886c-3.422,0.611-6.314,3.735-6.918,7.109
		c-0.603,3.372,0.508,6.621,1.996,9.644c-2.738-0.841-5.664-1.08-8.411-0.237c-3.357,1.03-6.09,3.7-6.831,7.197
		c-1.973,9.304,10.702,10.864,17.121,11.387c3.311,0.27,6.621,0.252,9.928,0.082c-0.269,0.135-0.543,0.256-0.81,0.395
		c-8.265,4.286-16.561,11.414-17.148,21.4c-0.135,2.298,0.129,4.858,1.508,6.782c1.508,2.104,3.995,2.593,6.314,1.551
		c2.933-1.318,5.589-3.485,7.788-6.002c-0.215,1.821-0.181,3.623,0.742,5.385c1.656,3.158,5.491,3.901,8.379,1.897
		c3.301-2.292,3.56-6.795,3.818-10.439c0.312-4.409,0.154-8.838-0.279-13.234c0.714,1.384,1.427,2.768,2.141,4.153
		c1.177,2.283,2.352,4.568,3.531,6.849c1.017,1.967,2.04,3.966,3.456,5.683c2.528,3.063,6.651,5.304,10.688,4.083
		c3.569-1.08,5.545-4.572,5.68-8.155c0.127-3.368-1.435-6.355-3.409-9.018c2.681,0.63,5.458,0.829,8.217,0.551
		c3.581-0.361,8.077-1.402,9.923-4.868C482.584,316.586,479.997,312.582,476.718,310.764z M440.436,284.515
		c0.89-3.961,2.151-8.333,4.801-11.507c1.013-1.213,2.543-2.478,4.216-2.473c1.135,0.003,1.228,1.025,1.334,1.957
		c0.13,1.139,0.216,2.283,0.264,3.428c0.228,5.41-0.447,10.794-1.964,15.989c-0.488,1.671,2.211,1.905,2.863,0.631
		c1.965-3.837,4.151-7.733,7.178-10.846c1.434-1.474,3.088-2.764,4.979-3.592c1.775-0.777,4.172-1.341,6.048-0.613
		c2.255,0.876,2.744,3.751,2.361,5.869c-0.413,2.282-1.746,4.268-3.247,5.982c-3.412,3.898-7.909,7.088-12.158,10.004
		c-4.368,2.997-8.977,5.637-13.764,7.905c-1.303,0.617-2.62,1.204-3.941,1.782C438.973,300.855,438.632,292.541,440.436,284.515z
		 M422.098,310.868c-2.256-0.11-4.5-0.351-6.721-0.761c-2.118-0.391-4.335-0.832-6.279-1.793c-1.812-0.895-3.153-2.432-3.221-4.514
		c-0.06-1.82,0.696-3.623,1.906-4.968c3.315-3.685,8.983-2.34,12.782-0.271c1.109,0.604,2.802-0.391,2.088-1.67
		c-1.691-3.027-3.526-6.348-3.499-9.917c0.02-2.606,1.484-5.325,4.011-6.301c2.986-1.153,4.832,2.111,6.025,4.324
		c1.607,2.98,2.618,6.261,3.423,9.536c1.246,5.065,2.298,10.228,3.173,15.398c-0.247,0.118-0.44,0.286-0.532,0.5
		C430.883,310.833,426.487,311.082,422.098,310.868z M437.214,338.091c-0.277,1.681-0.803,3.579-2.229,4.653
		c-1.243,0.936-2.6,0.817-3.48-0.491c-2.083-3.097-0.05-7.236,0.027-10.59c0.03-1.299-2.259-1.662-2.837-0.615
		c-1.182,2.141-2.625,4.147-4.361,5.876c-1.659,1.652-3.733,3.487-5.933,4.373c-2.105,0.848-2.973-1.939-3.171-3.577
		c-0.275-2.279,0.022-4.583,0.745-6.754c3.087-9.264,11.911-14.052,20.324-17.815c0.149,0.967,0.309,1.934,0.445,2.899
		C437.762,323.25,438.405,330.868,437.214,338.091z M478.19,318.169c-0.322,2.076-2.329,3.249-4.165,3.838
		c-4.819,1.548-10.294,0.898-14.84-1.179c-0.93-0.425-3.179,0.445-2.099,1.679c2.379,2.717,5.085,5.765,5.648,9.472
		c0.404,2.659-0.481,6.252-3.217,7.366c-3.505,1.427-6.828-1.887-8.554-4.534c-2.244-3.441-3.936-7.303-5.817-10.95
		c-1.949-3.781-3.899-7.561-5.848-11.342c-0.002-0.012-0.004-0.024-0.006-0.036c2.859-0.313,5.713-0.657,8.56-0.96
		c4.622-0.492,9.266-0.879,13.918-0.829c2.278,0.024,4.562,0.144,6.823,0.437c2.166,0.281,4.451,0.604,6.397,1.656
		C476.889,313.813,478.543,315.891,478.19,318.169z"/>
	<path d="M463.313,239.363c-6.912,0.686-13.794-0.045-20.215-2.794c-1.254-0.537-2.462-1.157-3.643-1.82
		c7.786-4.588,14.815-10.252,20.044-17.808c4.771-6.894,8.707-16.502,6.103-24.944c-1.031-3.343-3.434-6.567-7.025-7.318
		c-4.369-0.913-8.385,2.037-11.445,4.805c-4.27,3.862-7.447,8.63-10.082,13.705c-0.19-1.266-0.442-2.523-0.771-3.765
		c-0.982-3.713-2.668-7.599-5.841-9.962c-3.071-2.287-7.269-2.558-10.384-0.191c-2.734,2.077-3.869,5.642-4.295,8.909
		c-1,7.67,1.177,15.989,4.741,22.743c2.831,5.364,6.776,9.994,11.551,13.63c-6.254,3.252-12.829,5.906-19.32,8.62
		c-0.923,0.386-1.332,1.479-0.761,2.321c0.628,0.926,1.965,0.977,2.901,0.609c6.895-2.716,13.986-5.624,20.675-9.18
		c0.577,0.353,1.149,0.714,1.745,1.04c7.97,4.366,17.595,6.277,26.588,4.744C466.207,242.309,465.585,239.138,463.313,239.363z
		 M427.165,223.677c-4.018-5.731-6.5-12.592-6.982-19.582c-0.211-3.048-0.204-6.194,0.892-9.088
		c0.742-1.958,2.428-4.465,4.873-3.695c3.268,1.029,4.886,5.251,5.755,8.193c1.309,4.434,1.564,9.08,0.923,13.65
		c-0.142,1.011,1.141,1.682,1.942,1.76c1.004,0.098,2.048-0.299,2.457-1.283c2.814-6.765,5.931-13.561,10.799-19.126
		c1.149-1.314,2.408-2.525,3.765-3.624c1.311-1.062,2.806-2.286,4.474-2.706c2.891-0.728,4.623,2.653,5.296,4.928
		c1.087,3.674,0.515,7.893-0.551,11.502c-1.116,3.779-2.918,7.303-5.157,10.536c-4.348,6.279-10.231,11.316-16.632,15.415
		c-1.036,0.663-2.087,1.3-3.15,1.915C432.518,230.055,429.567,227.102,427.165,223.677z"/>
	<path d="M329.396,66.741c2.881-1.816,4.568-5.554,3.065-8.846c-1.154-2.527-3.841-4.037-6.572-4.193
		c1.415-2.916,0.438-6.861-2.291-8.808c-3.309-2.36-7.733-1.596-10.837,0.743c-0.61-1.751-1.452-3.411-2.774-4.75
		c-1.849-1.873-4.49-2.922-7.12-2.425c-4.519,0.853-6.259,4.924-7.008,9.004c-0.907-0.569-1.952-0.942-3.022-1.071
		c-0.346-0.042-0.688-0.053-1.027-0.049c1.929-2.576,2.769-5.622,0.323-8.586c-2.855-3.46-7.616-3.472-10.949-1.157
		c-0.402-3.772-1.939-7.464-6.266-7.894c-2.727-0.271-5.412,1.085-7.161,3.13c-1.221,1.427-1.96,3.154-2.498,4.948
		c-2.684-2.224-7.16-2.225-9.887,0.174c-3.54,3.114-3.539,7.677-1.583,11.426c-2.329-0.323-4.728-0.057-6.881,0.975
		c-2.892,1.387-5.129,4.158-5.604,7.358c-0.785,5.286,3.314,9.112,7.87,11.1c-3.633,1.529-6.838,4.417-6.396,8.634
		c0.505,4.815,4.452,7.318,8.716,8.562c-3.397,1.541-6.34,4.24-6.012,8.134c0.245,2.91,2.279,5.267,4.743,6.662
		c1.786,1.01,3.781,1.465,5.813,1.69c-1.338,1.061-2.441,2.401-3.166,4.026c-1.26,2.822-0.885,6.131,0.811,8.688
		c1.692,2.552,4.631,3.98,7.678,3.676c2.032-0.203,3.954-1.108,5.311-2.564c0.335,3.364,1.857,6.86,5.811,6.825
		c2.112-0.019,4.155-1.22,5.366-2.92c0.489-0.686,0.842-1.433,1.116-2.212c2.104,1.993,5.427,2.873,8.208,2.07
		c3.348-0.967,5.423-3.749,6.24-6.92c1.644,1.895,3.836,3.104,6.598,2.283c2.093-0.622,3.716-2.349,4.467-4.372
		c0.521-1.402,0.602-2.878,0.485-4.354c2.504,1.381,5.557,1.705,8.074,0.09c3.722-2.387,3.715-6.658,2.808-10.544
		c2.913,1.224,6.322,1.373,8.826-0.673c1.862-1.521,2.609-4.006,2.361-6.345c-0.186-1.755-0.843-3.355-1.677-4.873
		c3.15,0.072,6.367-1.76,7.831-4.659C335.376,74.384,332.934,69.565,329.396,66.741z M329.686,58.814
		c1.001,2.43-0.45,5.584-2.918,6.429c-0.198-3.209-1.115-6.284-2.634-8.955C326.276,55.638,328.787,56.631,329.686,58.814z
		 M295.974,103.013c-8.431,4.391-17.562,7.099-26.806,9.168c-3.209-6.68-5.862-13.637-7.885-20.766
		c-2.149-7.573-3.813-15.48-4.053-23.37c-0.254-8.324,1.53-16.986,7.25-23.319c2.103-2.328,4.906-3.183,8.025-3.516
		c10.565-1.128,12.236,13.784,12.513,21.166c0.075,2.007,3.353,2.532,4.352,0.943c4.179-6.643,11.506-12.72,19.673-13.063
		c3.835-0.161,7.458,1.205,10.016,4.118c2.598,2.96,3.993,6.752,4.204,10.664c0.451,8.354-3.523,16.557-8.607,22.962
		C309.646,94.312,303.096,99.303,295.974,103.013z M321.71,46.762c2.04,1.578,2.599,5.158,0.722,7.026
		c-2.148-2.67-5.013-4.702-8.445-5.692C315.972,46.117,319.301,44.899,321.71,46.762z M303.315,40.858
		c1.851-0.526,3.703,0.675,4.821,2.068c1.06,1.321,1.661,2.919,2.117,4.539c-4.075-0.257-8.085,0.737-11.757,2.562
		C298.817,46.57,299.543,41.929,303.315,40.858z M292.1,48.738c1.556,0.086,2.91,1.016,3.362,2.524
		c0.043,0.145,0.12,0.262,0.204,0.371c-2.318,1.489-4.456,3.288-6.322,5.286c-0.232-2.329-0.618-4.647-1.294-6.842
		C289.277,49.291,290.657,48.658,292.1,48.738z M285.534,37.385c1.837-0.257,3.709,0.798,4.574,2.424
		c1.574,2.96-0.644,5.669-3.041,7.655c-0.962-2.121-2.289-4.064-4.149-5.703c-0.53-0.467-1.091-0.863-1.667-1.222
		C282.19,38.962,283.657,37.647,285.534,37.385z M269.573,34.147c1.04-1.65,2.909-3.271,5.006-3.054
		c3.468,0.359,3.78,5.043,3.713,8.059c-1.497-0.502-3.077-0.793-4.701-0.949c-2.085-0.2-4.064,0.207-5.901,1.005
		C268.101,37.443,268.611,35.672,269.573,34.147z M257.013,39.177c1.08-1.244,2.684-2.025,4.337-1.579
		c1.584,0.428,2.713,1.628,3.066,3.22c0.019,0.086,0.071,0.153,0.111,0.227c-0.342,0.254-0.679,0.518-1.006,0.795
		c-2.442,2.074-4.365,4.613-5.839,7.406C255.308,46.433,254.423,42.16,257.013,39.177z M244.21,57.789
		c0.04-2.487,1.603-4.872,3.737-6.095c2.584-1.482,5.736-1.236,8.369-0.037c0.065,0.029,0.132,0.051,0.199,0.072
		c-1.275,3.063-2.076,6.342-2.469,9.605c-0.215,1.791-0.31,3.594-0.316,5.402c-0.004-0.001-0.006-0.003-0.01-0.004
		C249.404,65.817,244.129,62.829,244.21,57.789z M245.776,76.456c-0.58-4.481,4.273-6.802,7.944-7.415
		c0.019-0.003,0.031-0.013,0.05-0.017c0.188,4.849,0.989,9.709,2.016,14.439C251.56,82.861,246.403,81.304,245.776,76.456z
		 M252.388,98.069c-2.034-0.97-3.855-2.919-3.915-5.275c-0.103-4.054,4.432-6.084,7.897-6.748c0.062,0.264,0.123,0.53,0.186,0.793
		c1.011,4.238,2.263,8.405,3.733,12.493C257.636,99.272,254.828,99.232,252.388,98.069z M260.889,115.537
		c-2.147,0.151-3.989-1.285-4.948-3.122c-2.225-4.265,0.527-9.292,4.897-10.709c0.111-0.036,0.191-0.091,0.283-0.139
		c1.341,3.507,2.845,6.953,4.514,10.327c-0.097,0.104-0.18,0.222-0.234,0.365C264.69,114.138,262.885,115.397,260.889,115.537z
		 M272.482,119.732c-2.199,0.029-2.721-2.798-2.83-4.839c2.37-0.516,4.744-1.082,7.111-1.705
		C276.404,115.795,275.547,119.692,272.482,119.732z M286.58,116.684c-2.934,1.16-6.697-1.149-6.687-4.357
		c3.714-1.07,7.384-2.305,10.956-3.75C291.03,111.739,289.651,115.469,286.58,116.684z M299.189,112.133
		c-2.698,1-4.532-2.689-5.4-4.808c2.683-1.197,5.301-2.517,7.818-4C302.168,106.343,302.588,110.873,299.189,112.133z
		 M311.771,103.463c-2.342,2.297-5.848,0.407-7.488-1.794c3.004-1.964,5.841-4.181,8.469-6.677
		C313.601,97.911,314.047,101.231,311.771,103.463z M322.776,92.699c-1.992,1.981-5.138,0.951-7.28-0.52
		c0.629-0.69,1.254-1.383,1.852-2.112c1.694-2.068,3.276-4.341,4.647-6.753C323.725,86.191,325.427,90.062,322.776,92.699z
		 M330.644,77.278c-0.937,2.64-4.554,4.859-7.139,3.12c1.847-3.918,3.064-8.117,3.27-12.365
		C329.684,70.001,331.886,73.78,330.644,77.278z"/>
</g>
</svg>
