<svg xmlns="http://www.w3.org/2000/svg" viewBox="0 0 500 500">
  <path d="M125.513,168.353c0.602-1.007,1.084-1.801,1.554-2.602c2.931-4.988,6.224-9.673,10.891-13.239
    c3.408-2.605,7.124-4.318,11.49-4.576c2.215-0.131,3.913,0.61,5.59,1.974c4.132,3.36,5.97,7.828,6.594,12.932
    c0.598,4.902,0.098,9.738-1.112,14.497c-1.65,6.493-4.433,12.467-8.383,17.899c-13.292,18.277-30.502,31.254-51.884,38.72
    c-5.698,1.99-11.387,4.086-17.212,5.55c-2.967,0.746-6.326,0.816-9.53,0.508c-0.608-0.059-1.139-0.35-1.294-1.001
    c-0.194-0.817,0.304-1.279,0.964-1.591c1.959-0.924,4.078-1.348,6.175-1.74c4.152-0.776,7.434-3.02,9.954-6.188
    c7.509-9.442,11.16-20.161,10.411-32.342c-0.467-7.588-1.392-15.147-1.409-22.765c-0.011-4.88,0.077-9.746,1.01-14.557
    c0.616-3.178,1.616-6.227,3.143-9.086c1.165-2.182,2.682-4.056,4.869-5.324c3.603-2.089,7.37-1.852,10.632,0.732
    c2.947,2.335,4.631,5.461,5.613,9.025c0.915,3.319,1.079,6.729,1.285,10.137C124.917,166.236,124.722,167.228,125.513,168.353z"/>
</svg>
