<svg xmlns="http://www.w3.org/2000/svg" viewBox="0 0 500 500">
  <path d="M46.213,177.327c0.676-0.342,0.63-0.936,0.75-1.451c0.637-2.718,1.252-5.468,2.601-7.924
    c1.754-3.194,3.999-5.949,7.907-6.583c1.92-0.312,3.903-0.389,5.79-0.002c4.642,0.953,5.82,2.847,6.107,7.689
    c0.308,5.182-0.757,10.201-2.84,14.926c-2.027,4.6-4.166,9.159-6.618,13.557c-0.564,1.011-1.226,1.979-1.932,2.899
    c-2.121,2.766-4.248,5.521-6.102,8.484c-1.482,2.37-3.175,4.59-5.533,6.203c-0.451,0.308-0.87,0.668-1.427,0.745
    c-2.782,0.383-3.18-0.228-3.072-2.475c0.249-5.173-0.979-10.16-3.062-14.879c-1.436-3.253-3.213-6.354-4.747-9.566
    c-2.711-5.677-5.08-11.484-5.965-17.771c-0.336-2.385-0.434-4.811,0.277-7.147c0.983-3.23,2.564-4.299,5.755-4.228
    c3.266,0.072,5.59,1.584,7.179,4.343c1.243,2.159,2.09,4.493,2.883,6.842C44.874,173.088,45.53,175.205,46.213,177.327z"/>
</svg>
