<svg xmlns="http://www.w3.org/2000/svg" viewBox="0 0 500 500">
  <path d="M134.371,364.92c0.676-1.236,1.151-2.122,1.642-3c2.387-4.267,5.434-7.963,9.409-10.852
    c2.352-1.71,4.926-2.867,7.836-3.252c5.488-0.727,9.813,2.346,10.771,7.781c0.707,4.012,0.25,7.966-0.964,11.824
    c-2.176,6.92-5.926,12.772-11.469,17.561c-6.646,5.744-13.794,10.784-21.025,15.728c-1.376,0.941-2.796,1.812-4.118,2.838
    c-1.588,1.232-3.201,0.777-4.085-1.035c-2.741-5.62-5.436-11.263-8.248-16.848c-3.819-7.584-6.241-15.569-7.166-24.006
    c-0.365-3.333-0.291-6.669,0.206-9.983c0.331-2.203,1.111-4.264,2.336-6.135c2.257-3.449,5.986-4.844,9.961-3.742
    c1.936,0.537,3.602,1.542,5.05,2.925c1.963,1.873,3.459,4.089,4.733,6.463c1.927,3.588,3.227,7.421,4.374,11.311
    C133.816,363.175,134.036,363.846,134.371,364.92z"/>
</svg>
