<svg xmlns="http://www.w3.org/2000/svg" viewBox="0 0 500 500">
  <path d="M111.692,357.261c0.013,1.889,0.255,3.663,0.574,5.419c1.489,8.184,4.248,15.97,7.473,23.607
    c1.554,3.68,3.653,7.09,5.312,10.718c0.555,1.214,0.609,1.228,1.783,0.436c7.353-4.965,14.622-10.029,21.375-15.824
    c4.905-4.209,8.268-9.314,10.222-15.407c1.011-3.154,1.48-6.379,0.923-9.685c-0.472-2.799-2.168-4.148-4.989-3.99
    c-1.759,0.099-3.368,0.681-4.877,1.581c-3.402,2.031-5.969,4.895-8.116,8.163c-1.773,2.698-3.139,5.604-4.24,8.638
    c-0.304,0.838-0.596,1.691-1.122,2.424c-1.323,1.845-3.653,1.626-4.57-0.438c-0.215-0.484-0.327-1.019-0.451-1.538
    c-0.981-4.112-2.036-8.202-3.474-12.184c-1.157-3.204-2.531-6.297-4.578-9.049c-0.894-1.202-1.87-2.336-3.203-3.065
    c-2.867-1.567-5.862-1.271-7.065,2.898C111.989,352.32,111.386,354.812,111.692,357.261z"/>
</svg>
