<svg xmlns="http://www.w3.org/2000/svg" viewBox="0 0 500 500">
  <path d="M179.536,132.156c1.613-2.486,3.03-4.926,4.69-7.187
    c10.05-13.692,17.805-28.624,24.156-44.329c3.019-7.465,4.954-15.201,5.757-23.202c0.301-2.999,0.529-6.049-0.133-9.034
    c-0.421-1.898-1.065-2.082-2.596-0.887c-2.575,2.01-4.557,4.572-6.213,7.335c-5.516,9.203-10.936,18.458-14.438,28.686
    c-1.009,2.948-2.267,5.812-3.444,8.701c-0.416,1.021-0.981,1.96-2.3,1.907c-1.46-0.06-1.557-1.219-1.788-2.272
    c-0.563-2.571-1.146-5.138-1.708-7.71c-2.483-11.359-5.289-22.605-11.081-32.851c-1.104-1.954-2.152-3.935-3.514-5.73
    c-1.087-1.434-2.429-2.532-4.119-3.166c-2.06-0.773-3.376-0.286-4.374,1.632c-0.546,1.048-0.874,2.18-0.908,3.365
    c-0.051,1.754-0.127,3.512-0.059,5.264c0.445,11.554,2.231,22.905,5.567,33.975c4.531,15.038,10.119,29.707,15.79,44.343
    C178.956,131.342,179.215,131.642,179.536,132.156z"/>
</svg>
