<svg xmlns="http://www.w3.org/2000/svg" viewBox="0 0 500 500">
  <path d="M93.068,231.853c0.809,0.554,1.306,0.053,1.799-0.106
    c9.352-3.01,17.958-7.436,25.83-13.35c10.273-7.718,18.351-17.414,25.531-27.932c5.16-7.558,7.854-16.042,9.181-25.032
    c0.502-3.402-1.032-5.874-3.385-7.94c-1.651-1.449-3.675-1.696-5.77-0.911c-1.945,0.729-3.607,1.907-5.173,3.243
    c-3.746,3.193-6.839,6.917-9.295,11.19c-1.405,2.443-2.928,4.779-5.338,6.46c-1.939,1.353-2.852,1.176-3.434-1.172
    c-0.375-1.512-0.558-3.052-0.549-4.631c0.024-4.401-0.418-8.765-1.476-13.043c-0.753-3.044-1.73-6.013-3.957-8.36
    c-1.618-1.705-3.274-1.862-5.23-0.613c-1.195,0.763-1.983,1.857-2.611,3.086c-0.895,1.751-1.406,3.628-1.789,5.546
    c-0.961,4.808-1.139,9.674-0.989,14.55c0.234,7.597,0.636,15.194,0.091,22.791c-0.689,9.605-2.47,18.93-7.148,27.508
    C97.631,226.297,95.618,229.246,93.068,231.853z"/>
</svg>
