<svg xmlns="http://www.w3.org/2000/svg" viewBox="0 0 500 500">
  <path d="M350.924,274.322c0.808-0.605,0.84-1.431,1.091-2.151c2.19-6.278,4.96-12.297,8.161-18.116
    c1.607-2.921,3.568-5.586,6.07-7.828c2.442-2.188,5.225-3.364,8.556-3.007c0.387,0.042,0.778,0.071,1.167,0.076
    c8.322,0.1,13.772,5.148,14.582,13.564c0.604,6.282-0.308,12.406-1.565,18.572c-3.546,17.395-8.587,34.433-12.146,51.82
    c-1.594,7.79-1.9,15.678-1.839,23.589c0.033,4.292,0.263,8.582,0.428,12.872c0.03,0.774-0.11,1.845,0.324,2.258
    c1.384,1.316,0.109,2.27-0.203,3.347c-0.312,1.078-1.105,1.321-2.064,0.926c-0.987-0.406-2.038-0.773-2.877-1.403
    c-9.044-6.794-18.684-12.763-27.359-20.079c-10.234-8.633-18.343-18.759-23.823-31.059c-4.979-11.174-9.272-22.545-11.729-34.548
    c-1.345-6.57-1.592-13.164,0.279-19.706c0.947-3.311,2.418-6.369,4.422-9.18c2.809-3.94,6.666-6.197,11.339-7.165
    c0.568-0.118,1.205-0.285,1.734-0.143c2.847,0.761,5.813,0.521,8.666,1.081c3.196,0.627,5.638,2.58,7.717,4.996
    c3.106,3.609,5.16,7.799,6.562,12.309C349.335,268.29,350.083,271.284,350.924,274.322z"/>
</svg>
