<svg xmlns="http://www.w3.org/2000/svg" viewBox="0 0 500 500">
  <path d="M83.882,138.755c1.145-0.372,1.54-1.331,2.117-2.084
    c3.4-4.436,5.992-9.327,8.243-14.432c7.878-17.866,14.953-35.97,18.442-55.324c1.895-10.513,1.302-20.708-1.818-30.889
    c-1.419-4.631-6.071-5.476-9.344-3.589c-2.308,1.33-4.382,2.902-6.079,4.962c-3.379,4.103-5.982,8.629-7.723,13.672
    c-1.922,5.567-2.829,11.321-3.633,17.124c-0.346,2.499-0.146,4.739,0.753,7.096c2.246,5.888,3.199,12.04,3.147,18.34
    c-0.018,2.149-0.08,4.318-1.077,6.287c-1.135,2.239-3.085,2.639-5.063,1.104c-2.079-1.613-3.268-3.797-4.131-6.241
    c-3.268-9.256-4.462-18.752-3.282-28.502c0.191-1.576-0.065-2.812-0.987-4.076c-5.095-6.981-11.188-12.992-17.849-18.448
    c-0.967-0.792-2.11-1.417-3.257-1.93c-2.909-1.301-4.795-0.616-6.349,2.139c-1.257,2.228-1.341,4.659-1.197,7.107
    c0.363,6.182,1.778,12.146,4.006,17.904c7.392,19.109,15.336,37.953,26.517,55.249c1.532,2.369,2.751,4.938,4.173,7.38
    C80.901,134.026,82.134,136.561,83.882,138.755z"/>
</svg>
