<svg xmlns="http://www.w3.org/2000/svg" viewBox="0 0 500 500">
  <path d="M76.38,55.746c1.518-5.663,3.481-10.946,5.973-16.043c2.128-4.353,5.026-8.102,8.445-11.49
    c4.759-4.715,10.224-5.688,16.379-3.151c4.015,1.655,7.101,4.377,9.388,8.046c3.505,5.624,4.998,11.82,5.085,18.37
    c0.148,11.141-2.232,21.884-5.451,32.458c-3.213,10.556-7.51,20.665-12.243,30.646c-4.872,10.273-10.689,19.906-17.237,29.147
    c-1.232,1.74-2.142,1.784-3.244-0.024c-0.62-1.018-1.401-1.856-2.192-2.717c-1.253-1.363-2.55-2.704-3.656-4.182
    c-10.35-13.83-20.219-27.996-28.269-43.308c-6.279-11.943-11.102-24.495-14.063-37.702c-0.922-4.113-1.335-8.282-0.509-12.479
    c1.276-6.49,5.086-9.809,11.702-10.088c6.286-0.265,11.615,2.147,16.266,6.177c4.61,3.993,8.194,8.862,11.564,13.903
    C74.844,54.094,75.116,55.097,76.38,55.746z"/>
</svg>
