<svg xmlns="http://www.w3.org/2000/svg" viewBox="0 0 500 500">
  <path d="M304.309,167.387c1.058-0.713,1.147-1.762,1.494-2.632c4.136-10.367,11.38-18.306,19.783-25.323
    c2.026-1.692,4.357-2.951,6.798-3.975c4.178-1.753,8.192-1.364,12.031,0.973c4.01,2.441,7.215,5.737,9.322,9.894
    c4.794,9.456,6.953,19.458,5.113,30.037c-1.404,8.073-5.816,14.651-11.327,20.432c-7.773,8.153-16.802,14.83-26.065,21.186
    c-1.045,0.717-2.044,1.504-3.106,2.196c-8.727,5.692-13.641,13.965-16.17,23.855c-0.554,2.165-1.658,3.056-3.422,2.713
    c-1.659-0.323-2.415-1.664-2.101-3.882c0.62-4.369,0.576-8.764,0.238-13.132c-0.344-4.444-2.075-8.445-4.399-12.268
    c-6.138-10.093-12.945-19.726-19.778-29.347c-7.362-10.367-12.054-21.8-13.489-34.496c-0.453-4.007-0.452-7.984,0.791-11.878
    c1.546-4.84,4.686-7.96,9.692-9.195c6.97-1.72,13.128-0.28,18.487,4.513c4.064,3.636,7.053,8.05,9.36,12.956
    c2.245,4.774,3.916,9.77,5.717,14.716C303.595,165.602,303.948,166.46,304.309,167.387z"/>
</svg>
